<svg id="Camada_1" data-name="Camada 1" xmlns="http://www.w3.org/2000/svg" viewBox="0 0 1564.52 280"><path d="M1100.31,0V280h494.47V0ZM1273,254.44h-156.3v-222h154.8v20.7h-129.3v77.1h114v20.55h-114v83H1273Zm192.74,0L1390.32,159l-75.44,95.4h-29.25l89.55-112.95-86.7-109h30.15l72.3,90.9,72.45-90.9h28.94l-86.39,108.45,89.84,113.55Z" transform="translate(-30.26 0)" style="fill:#4f2085"/><path d="M64.91,254.74a203.87,203.87,0,0,1-31-7.35v-21.6A202.81,202.81,0,0,0,66,233.51a204,204,0,0,0,31.57,2.63q60.9,0,60.9-41.25,0-11.4-4.95-18.83t-15.67-12.3q-10.72-4.87-29.18-8.47l-13.5-2.55q-33.75-6.6-49.35-21.38T30.26,92q0-19.5,9.75-33.45T69.19,37.09q19.43-7.5,47.92-7.5A199.79,199.79,0,0,1,174,37.39V59a193,193,0,0,0-56.7-8.25q-31,0-46.12,10.35T56.06,90.94q0,11.25,4.35,18.75t14.25,12.45q9.9,5,26.85,8.4l13.5,2.55q24.75,4.8,40,12.9t22.2,19.8q7,11.7,7,27.9,0,20.1-10.2,34.42t-29.77,21.75q-19.58,7.42-47,7.43A207.12,207.12,0,0,1,64.91,254.74Z" transform="translate(-30.26 0)" style="fill:#fff"/><path d="M246.49,230q-29.78-27.3-29.78-86.1,0-38.25,13.8-63.75a87.44,87.44,0,0,1,39.68-38q25.88-12.53,62.47-12.52a214.76,214.76,0,0,1,28.65,1.8,205.59,205.59,0,0,1,27,5.55v21.9a201,201,0,0,0-54.45-7.35q-44.55,0-67.35,22.12t-22.8,69.68q0,48.9,22.58,70.5t65.32,21.6a184,184,0,0,0,28.43-2.1,185.35,185.35,0,0,0,28.27-6.9v21.9q-26.4,9-58.05,9Q276.26,257.29,246.49,230Z" transform="translate(-30.26 0)" style="fill:#fff"/><path d="M575.06,254.44l-74.85-91.65q-3.45.15-10.65.15-15.6,0-37.95-1.8v93.3H426.26V37.24A326.4,326.4,0,0,1,493.31,30q32.25,0,52.95,6.82t31,21.38Q587.5,72.79,587.51,96q0,26.1-15.3,42.07t-45.3,21.68l77.55,94.65ZM451.61,141.19q11.25,1,19.28,1.5t19.57.45q38.1,0,55.43-11.4t17.32-35.25q0-17.25-7.12-27.45t-22-14.7q-14.85-4.5-39.3-4.5-13.05,0-22.8,1t-20.4,2.93Z" transform="translate(-30.26 0)" style="fill:#fff"/><path d="M644.06,254.44v-222h25.65v222Z" transform="translate(-30.26 0)" style="fill:#fff"/><path d="M728.06,36.49q17.1-3.3,32.47-4.88A319.18,319.18,0,0,1,793,30q47.85,0,72.07,18.37t24.23,57.08q0,37.65-24.53,56.92T789,181.69q-15.15,0-35.25-1.65v74.4H728.06ZM832.31,155.74q16.5-6.15,24.07-18.53T864,105.64q0-28.8-17.1-42.3t-52.2-13.5a228.27,228.27,0,0,0-40.95,3.45V159.64a271.21,271.21,0,0,0,35.4,2.25Q815.81,161.89,832.31,155.74Z" transform="translate(-30.26 0)" style="fill:#fff"/><path d="M933.26,254.44v-222h25.65v200.7h124.5v21.3Z" transform="translate(-30.26 0)" style="fill:#fff"/></svg>