<svg xmlns="http://www.w3.org/2000/svg" xmlns:xlink="http://www.w3.org/1999/xlink" viewBox="0 0 306.7 253.8"><defs><linearGradient id="Áåçûìÿííûé_ãðàäèåíò_2" x1="-258.61" y1="92.65" x2="-102.29" y2="92.65" gradientTransform="matrix(-1, 0, 0, 1, -15.91, 0)" gradientUnits="userSpaceOnUse"><stop offset="0" stop-color="#c0bff6"/><stop offset="0.29" stop-color="#c5c4f7"/><stop offset="0.64" stop-color="#d3d2f9"/><stop offset="1" stop-color="#e9e9fd"/></linearGradient><linearGradient id="Áåçûìÿííûé_ãðàäèåíò_24" x1="-258.61" y1="132.74" x2="-231.77" y2="132.74" gradientTransform="matrix(-1, 0, 0, 1, -15.91, 0)" gradientUnits="userSpaceOnUse"><stop offset="0" stop-color="#5761d7"/><stop offset="0.18" stop-color="#5c66d9"/><stop offset="0.39" stop-color="#6a73df"/><stop offset="0.61" stop-color="#8289e8"/><stop offset="0.85" stop-color="#a3a7f5"/><stop offset="1" stop-color="#bcbeff"/></linearGradient><linearGradient id="Áåçûìÿííûé_ãðàäèåíò_24-2" x1="-237.67" y1="176.48" x2="-16.89" y2="176.48" xlink:href="#Áåçûìÿííûé_ãðàäèåíò_24"/><linearGradient id="Áåçûìÿííûé_ãðàäèåíò_2-2" x1="-335.75" y1="170.44" x2="-10.42" y2="170.44" xlink:href="#Áåçûìÿííûé_ãðàäèåíò_2"/><clipPath id="clip-path"><polygon points="238.98 81.85 103.02 3.39 85.94 104.95 221.81 183.36 238.98 81.85" style="fill:none"/></clipPath><linearGradient id="Áåçûìÿííûé_ãðàäèåíò_24-3" x1="-322.57" y1="127.89" x2="-101.78" y2="127.89" xlink:href="#Áåçûìÿííûé_ãðàäèåíò_24"/><linearGradient id="Áåçûìÿííûé_ãðàäèåíò_2-3" x1="-248.38" y1="121.85" x2="-27.48" y2="121.85" xlink:href="#Áåçûìÿííûé_ãðàäèåíò_2"/><linearGradient id="Áåçûìÿííûé_ãðàäèåíò_21" x1="324.6" y1="99.62" x2="371.23" y2="119.57" gradientTransform="translate(-148.43)" gradientUnits="userSpaceOnUse"><stop offset="0" stop-color="#42e8e0"/><stop offset="0.11" stop-color="#37b6bf"/><stop offset="0.22" stop-color="#2c87a1"/><stop offset="0.34" stop-color="#235f87"/><stop offset="0.46" stop-color="#1c3f72"/><stop offset="0.58" stop-color="#162561"/><stop offset="0.71" stop-color="#121355"/><stop offset="0.85" stop-color="#10084e"/><stop offset="1" stop-color="#0f054c"/></linearGradient></defs><g style="isolation:isolate"><g id="Camada_2" data-name="Camada 2"><g id="Ñëîé_1" data-name="Ñëîé 1"><path d="M138.43,253.8a6.18,6.18,0,0,1-3-.77L1.45,175.7a2.52,2.52,0,0,1-1.45-2A1.94,1.94,0,0,1,1.1,172L81,125.86a5.94,5.94,0,0,1,5.43.21L220.4,203.4a2.49,2.49,0,0,1,1.46,2,1.94,1.94,0,0,1-1.1,1.66l-79.93,46.14A4.84,4.84,0,0,1,138.43,253.8ZM1.93,174.87l134,77.33a5.06,5.06,0,0,0,4.47.21l79.93-46.15a1.06,1.06,0,0,0,.62-.83c0-.4-.37-.85-1-1.2L86,126.89a5.08,5.08,0,0,0-4.48-.2L1.57,172.84a1,1,0,0,0-.61.82c0,.41.36.86,1,1.21Z" style="fill:#42e8e0"/><path d="M86.41,102.37,103.34,1.92,102,1.34l2-1.17h0a1.48,1.48,0,0,1,1.58.11L240.92,78.42a3.82,3.82,0,0,1,1.76,3.43L225.61,183.11a1.26,1.26,0,0,1-.71,1h0l-2,1.16-.35-1.87.12,0L88.16,105.81A3.81,3.81,0,0,1,86.41,102.37Z" style="fill:url(#Áåçûìÿííûé_ãðàäèåíò_2)"/><path d="M240.16,81.16l2.23-1a3.11,3.11,0,0,1,.29,1.67L225.61,183.11a1.26,1.26,0,0,1-.71,1h0l-2,1.16-.35-1.87.12,0-6.81-3.93Z" style="fill:url(#Áåçûìÿííûé_ãðàäèåíò_24)"/><path d="M86,107l135.32,78.12c1,.61,1.94.26,2.13-.82L240.55,83.07a3.79,3.79,0,0,0-1.75-3.43L103.47,1.51c-1-.61-1.93-.26-2.12.82L84.28,103.59A3.85,3.85,0,0,0,86,107Z" style="fill:#24126a"/><g style="opacity:0.51"><polygon points="103.02 3.39 238.98 81.85 221.81 183.36 85.94 104.95 103.02 3.39" style="fill:#453c9e"/></g><path d="M1,155l7.38,3.86,74.05-42.75a5.36,5.36,0,0,1,4.84.2L215,190c1.22-.68,6.79-3.36,6.79-3.36l-2.7,4.39h0a1.66,1.66,0,0,1-.76.83l-78,45a5.34,5.34,0,0,1-4.83-.2L4.77,161.24a2.33,2.33,0,0,1-1.1-1.17h0Z" style="fill:url(#Áåçûìÿííûé_ãðàäèåíò_24-2)"/><path d="M2.12,156.18l134,77.33a5.5,5.5,0,0,0,5,.21L221,187.57c1.27-.73,1.11-2-.36-2.86L86.65,107.38a5.5,5.5,0,0,0-5-.21L1.77,153.32C.5,154.05.65,155.33,2.12,156.18Z" style="fill:url(#Áåçûìÿííûé_ãðàäèåíò_2-2)"/><path d="M2.12,155.58l134,77.33a5.5,5.5,0,0,0,5,.21L221,187a1.58,1.58,0,0,0,.8-.94,1.35,1.35,0,0,1-.8,1.54L141,233.72a5.5,5.5,0,0,1-5-.21L2.12,156.18c-1-.55-1.34-1.28-1.16-1.93A2.31,2.31,0,0,0,2.12,155.58Z" style="fill:#fff"/><g style="opacity:0.15"><g style="clip-path:url(#clip-path)"><path d="M85.88,106.37l7.38,3.86,74.05-42.75a5.36,5.36,0,0,1,4.84.2l127.71,73.74c1.23-.69,6.8-3.37,6.8-3.37l-2.71,4.4h0a1.64,1.64,0,0,1-.75.84l-78,45a5.36,5.36,0,0,1-4.84-.2L89.67,112.65a2.33,2.33,0,0,1-1.1-1.17h0Z" style="fill:url(#Áåçûìÿííûé_ãðàäèåíò_24-3)"/><path d="M87,107.59,221,184.92a5.52,5.52,0,0,0,5,.21L305.85,139c1.27-.73,1.11-2-.36-2.86L171.55,58.79a5.52,5.52,0,0,0-5-.21L86.66,104.73C85.39,105.46,85.55,106.74,87,107.59Z" style="fill:url(#Áåçûìÿííûé_ãðàäèåíò_2-3)"/><path d="M305.49,136.12,171.55,58.79a5.82,5.82,0,0,0-3.31-.68,5.64,5.64,0,0,1,2.32.68L304.5,136.12c1.47.85,1.63,2.13.36,2.86l-79.93,46.15a4,4,0,0,1-1.64.46,4.73,4.73,0,0,0,2.63-.46L305.85,139C307.12,138.25,307,137,305.49,136.12Z" style="fill:#fff"/><g style="opacity:0.5"><path d="M157.18,94.27l-4.29-2.47a1.44,1.44,0,0,0-1.31,0l-4.77,2.79c-.37.22-.4.56-.05.76l4.29,2.48a1.45,1.45,0,0,0,1.3,0L157.12,95C157.5,94.81,157.52,94.47,157.18,94.27Z" style="fill:#24126a"/><path d="M163.81,98.1l-4.29-2.48a1.48,1.48,0,0,0-1.31,0l-4.77,2.79c-.37.22-.4.56-.05.76l4.29,2.47a1.42,1.42,0,0,0,1.3,0l4.77-2.79C164.13,98.64,164.15,98.3,163.81,98.1Z" style="fill:#24126a"/><path d="M170.44,101.93l-4.29-2.48a1.44,1.44,0,0,0-1.31,0l-4.77,2.79c-.37.22-.4.55,0,.75l4.29,2.48a1.42,1.42,0,0,0,1.3,0l4.78-2.79C170.76,102.47,170.78,102.13,170.44,101.93Z" style="fill:#24126a"/><path d="M165.39,107l-4.29-2.48a1.42,1.42,0,0,0-1.3,0l-4,2.34c-.38.22-.4.56,0,.76l4.29,2.48a1.42,1.42,0,0,0,1.3,0l4-2.34C165.71,107.56,165.74,107.23,165.39,107Z" style="fill:#24126a"/><path d="M172,110.85l-4.29-2.47a1.42,1.42,0,0,0-1.3,0l-4,2.34c-.37.22-.4.56,0,.76l4.29,2.48a1.42,1.42,0,0,0,1.3,0l4-2.34C172.34,111.39,172.37,111.05,172,110.85Z" style="fill:#24126a"/><path d="M178.65,114.68l-4.29-2.48a1.42,1.42,0,0,0-1.3,0l-4,2.34c-.37.22-.4.56-.05.76l4.29,2.48a1.45,1.45,0,0,0,1.3,0l4-2.34C179,115.22,179,114.88,178.65,114.68Z" style="fill:#24126a"/><path d="M185.28,118.51,181,116a1.42,1.42,0,0,0-1.3,0l-4,2.34c-.37.22-.4.56-.05.76l4.29,2.47a1.42,1.42,0,0,0,1.3,0l4-2.34C185.6,119.05,185.63,118.71,185.28,118.51Z" style="fill:#24126a"/><path d="M191.91,122.34l-4.29-2.48a1.42,1.42,0,0,0-1.3,0l-4,2.34c-.37.22-.4.55-.05.75l4.29,2.48a1.45,1.45,0,0,0,1.3,0l4-2.34C192.23,122.88,192.26,122.54,191.91,122.34Z" style="fill:#24126a"/><path d="M198.54,126.17l-4.29-2.48a1.45,1.45,0,0,0-1.3,0l-4,2.34c-.37.22-.4.56-.05.76l4.29,2.48a1.42,1.42,0,0,0,1.3,0l4-2.34C198.86,126.7,198.89,126.37,198.54,126.17Z" style="fill:#24126a"/><path d="M205.18,130l-4.3-2.48a1.42,1.42,0,0,0-1.3,0l-4,2.34c-.37.22-.4.56,0,.76l4.29,2.48a1.42,1.42,0,0,0,1.3,0l4-2.34C205.5,130.53,205.52,130.19,205.18,130Z" style="fill:#24126a"/><path d="M211.81,133.82l-4.3-2.48a1.45,1.45,0,0,0-1.3,0l-4,2.34c-.37.22-.4.56,0,.76l4.29,2.48a1.44,1.44,0,0,0,1.31,0l4-2.34C212.13,134.36,212.15,134,211.81,133.82Z" style="fill:#24126a"/><path d="M218.44,137.65l-4.3-2.48a1.42,1.42,0,0,0-1.3,0l-4,2.34c-.37.22-.4.56-.05.76l4.29,2.47a1.44,1.44,0,0,0,1.31,0l4-2.34C218.76,138.19,218.78,137.85,218.44,137.65Z" style="fill:#24126a"/><path d="M225.07,141.48l-4.3-2.48a1.42,1.42,0,0,0-1.3,0l-4,2.34c-.37.22-.39.55-.05.75l4.29,2.48a1.44,1.44,0,0,0,1.31,0l4-2.34C225.39,142,225.41,141.68,225.07,141.48Z" style="fill:#24126a"/><path d="M162.63,112.49,158.34,110a1.44,1.44,0,0,0-1.31,0l-4,2.34c-.38.22-.4.56-.06.76l4.3,2.47a1.42,1.42,0,0,0,1.3,0l4-2.34C163,113,163,112.69,162.63,112.49Z" style="fill:#24126a"/><path d="M155.9,108.61l-4.29-2.48a1.44,1.44,0,0,0-1.31,0l-4,2.34c-.38.22-.4.56-.06.76l4.3,2.48a1.42,1.42,0,0,0,1.3,0l4-2.34C156.22,109.14,156.24,108.8,155.9,108.61Z" style="fill:#24126a"/><path d="M149.16,104.71l-9.25-5.33a1.42,1.42,0,0,0-1.3,0l-4,2.34c-.37.22-.4.56,0,.76l9.25,5.34a1.42,1.42,0,0,0,1.3,0l4-2.34C149.48,105.25,149.5,104.91,149.16,104.71Z" style="fill:#24126a"/><path d="M141.34,107.26l-7.5-4.33a1.44,1.44,0,0,0-1.31,0l-4,2.34c-.38.22-.4.56-.06.76l7.51,4.33a1.45,1.45,0,0,0,1.3,0l4-2.34C141.66,107.8,141.68,107.46,141.34,107.26Z" style="fill:#24126a"/><path d="M169.26,116.32,165,113.84a1.44,1.44,0,0,0-1.31,0l-4,2.34c-.38.22-.4.55-.06.75l4.3,2.48a1.42,1.42,0,0,0,1.3,0l4-2.34C169.58,116.86,169.6,116.52,169.26,116.32Z" style="fill:#24126a"/><path d="M175.89,120.15l-4.29-2.48a1.47,1.47,0,0,0-1.31,0l-4,2.34c-.38.22-.4.56-.06.76l4.3,2.48a1.42,1.42,0,0,0,1.3,0l4-2.34C176.21,120.69,176.24,120.35,175.89,120.15Z" style="fill:#24126a"/><path d="M182.52,124l-4.29-2.48a1.44,1.44,0,0,0-1.31,0l-4,2.34c-.38.22-.4.56-.06.76l4.3,2.48a1.42,1.42,0,0,0,1.3,0l4-2.34C182.84,124.51,182.87,124.17,182.52,124Z" style="fill:#24126a"/><path d="M189.15,127.8l-4.29-2.48a1.45,1.45,0,0,0-1.3,0l-4,2.34c-.38.22-.4.56-.05.76l4.29,2.48a1.42,1.42,0,0,0,1.3,0l4-2.34C189.47,128.34,189.5,128,189.15,127.8Z" style="fill:#24126a"/><path d="M195.78,131.63l-4.29-2.48a1.42,1.42,0,0,0-1.3,0l-4,2.34c-.37.22-.4.56-.05.76l4.29,2.47a1.42,1.42,0,0,0,1.3,0l4-2.34C196.1,132.17,196.13,131.83,195.78,131.63Z" style="fill:#24126a"/><path d="M202.41,135.46,198.12,133a1.42,1.42,0,0,0-1.3,0l-4,2.34c-.37.22-.4.56-.05.75l4.29,2.48a1.42,1.42,0,0,0,1.3,0l4-2.34C202.73,136,202.76,135.66,202.41,135.46Z" style="fill:#24126a"/><path d="M209,139.29l-4.29-2.48a1.42,1.42,0,0,0-1.3,0l-4,2.34c-.37.21-.4.55-.05.75l4.29,2.48a1.45,1.45,0,0,0,1.3,0l4-2.35C209.36,139.83,209.39,139.49,209,139.29Z" style="fill:#24126a"/><path d="M215.67,143.12l-4.29-2.48a1.42,1.42,0,0,0-1.3,0l-4,2.34c-.37.22-.4.56,0,.76l4.29,2.48a1.42,1.42,0,0,0,1.3,0l4-2.34C216,143.65,216,143.32,215.67,143.12Z" style="fill:#24126a"/><path d="M222.3,146.94,218,144.47a1.42,1.42,0,0,0-1.3,0l-4,2.34c-.37.22-.4.56,0,.76l4.29,2.48a1.42,1.42,0,0,0,1.3,0l4-2.34C222.62,147.48,222.65,147.14,222.3,146.94Z" style="fill:#24126a"/><path d="M234.09,153.75l-9.37-5.41a1.42,1.42,0,0,0-1.3,0l-4,2.34c-.38.22-.4.56-.06.75l9.37,5.41a1.42,1.42,0,0,0,1.3,0l4-2.34C234.41,154.29,234.44,154,234.09,153.75Z" style="fill:#24126a"/><path d="M221.94,160.85,214,156.29a1.42,1.42,0,0,0-1.3,0l-4,2.34c-.37.22-.4.56-.05.76l7.9,4.56a1.44,1.44,0,0,0,1.31,0l4-2.34C222.26,161.39,222.28,161.05,221.94,160.85Z" style="fill:#24126a"/><path d="M168.34,122.85l-4.29-2.48a1.47,1.47,0,0,0-1.31,0l-4,2.34c-.38.22-.4.56-.06.76L163,126a1.42,1.42,0,0,0,1.3,0l4-2.34C168.66,123.39,168.68,123.05,168.34,122.85Z" style="fill:#24126a"/><path d="M161.54,118.92l-4.29-2.48a1.45,1.45,0,0,0-1.3,0l-4,2.34c-.37.22-.4.56-.05.76l4.29,2.48a1.42,1.42,0,0,0,1.3,0l4-2.34C161.86,119.46,161.89,119.12,161.54,118.92Z" style="fill:#24126a"/><path d="M154.75,115l-4.29-2.48a1.44,1.44,0,0,0-1.31,0l-4,2.34c-.38.22-.4.56-.06.75l4.3,2.48a1.42,1.42,0,0,0,1.3,0l4-2.34C155.07,115.54,155.09,115.2,154.75,115Z" style="fill:#24126a"/><path d="M148,111.08l-4.29-2.48a1.45,1.45,0,0,0-1.3,0l-4,2.34c-.37.22-.4.56,0,.76l4.29,2.48a1.42,1.42,0,0,0,1.3,0l4-2.34C148.27,111.62,148.3,111.28,148,111.08Z" style="fill:#24126a"/><path d="M175,126.68l-4.29-2.48a1.44,1.44,0,0,0-1.31,0l-4,2.34c-.38.22-.4.56-.06.76l4.3,2.48a1.42,1.42,0,0,0,1.3,0l4-2.34C175.29,127.21,175.32,126.87,175,126.68Z" style="fill:#24126a"/><path d="M181.6,130.5,177.31,128a1.48,1.48,0,0,0-1.31,0l-4,2.34c-.38.22-.4.56-.06.76l4.3,2.48a1.42,1.42,0,0,0,1.3,0l4-2.34C181.92,131,182,130.7,181.6,130.5Z" style="fill:#24126a"/><path d="M188.23,134.33l-4.29-2.48a1.42,1.42,0,0,0-1.3,0l-4,2.34c-.38.22-.4.56-.06.76l4.3,2.47a1.42,1.42,0,0,0,1.3,0l4-2.34C188.55,134.87,188.58,134.53,188.23,134.33Z" style="fill:#24126a"/><path d="M194.86,138.16l-4.29-2.48a1.42,1.42,0,0,0-1.3,0l-4,2.34c-.37.22-.4.56,0,.75l4.29,2.48a1.42,1.42,0,0,0,1.3,0l4-2.34C195.18,138.7,195.21,138.36,194.86,138.16Z" style="fill:#24126a"/><path d="M201.49,142l-4.29-2.48a1.42,1.42,0,0,0-1.3,0l-4,2.34c-.37.21-.4.55,0,.75l4.29,2.48a1.45,1.45,0,0,0,1.3,0l4-2.35C201.81,142.53,201.84,142.19,201.49,142Z" style="fill:#24126a"/><path d="M208.12,145.82l-4.29-2.48a1.42,1.42,0,0,0-1.3,0l-4,2.34c-.37.22-.4.56-.05.76l4.29,2.48a1.42,1.42,0,0,0,1.3,0l4-2.34C208.44,146.35,208.47,146,208.12,145.82Z" style="fill:#24126a"/><path d="M214.75,149.64l-4.29-2.47a1.42,1.42,0,0,0-1.3,0l-4,2.34c-.37.22-.4.56-.05.76l4.29,2.48a1.42,1.42,0,0,0,1.3,0l4-2.34C215.07,150.18,215.1,149.84,214.75,149.64Z" style="fill:#24126a"/><path d="M221.38,153.47,217.09,151a1.42,1.42,0,0,0-1.3,0l-4,2.34c-.37.22-.4.56-.05.76l4.29,2.48a1.45,1.45,0,0,0,1.3,0l4-2.34C221.7,154,221.73,153.67,221.38,153.47Z" style="fill:#24126a"/><path d="M228,157.3l-4.29-2.48a1.42,1.42,0,0,0-1.3,0l-4,2.34c-.37.22-.4.56,0,.75l4.29,2.48a1.42,1.42,0,0,0,1.3,0l4-2.34C228.33,157.84,228.36,157.5,228,157.3Z" style="fill:#24126a"/><path d="M152.32,120.66l-4.3-2.48a1.42,1.42,0,0,0-1.3,0l-4,2.34c-.37.22-.39.56-.05.76l4.29,2.48a1.44,1.44,0,0,0,1.31,0l4-2.34C152.64,121.19,152.66,120.85,152.32,120.66Z" style="fill:#24126a"/><path d="M145.72,116.85l-4.29-2.48a1.44,1.44,0,0,0-1.31,0l-4,2.34c-.38.22-.4.56-.06.76l4.3,2.48a1.42,1.42,0,0,0,1.3,0l4-2.34C146,117.38,146.06,117.05,145.72,116.85Z" style="fill:#24126a"/><path d="M139.12,113l-4.29-2.48a1.45,1.45,0,0,0-1.3,0l-4,2.34c-.38.22-.4.56-.06.76l4.3,2.48a1.42,1.42,0,0,0,1.3,0l4-2.34C139.44,113.58,139.47,113.24,139.12,113Z" style="fill:#24126a"/><path d="M132.52,109.23l-4.29-2.48a1.42,1.42,0,0,0-1.3,0l-4,2.34c-.37.21-.4.55,0,.75l4.29,2.48a1.45,1.45,0,0,0,1.3,0l4-2.34C132.84,109.77,132.87,109.43,132.52,109.23Z" style="fill:#24126a"/><path d="M126.14,113l-4.3-2.48a1.42,1.42,0,0,0-1.3,0l-1.32.77c-.38.22-.4.56-.06.76l4.29,2.48a1.44,1.44,0,0,0,1.31,0l1.32-.77C126.46,113.5,126.48,113.16,126.14,113Z" style="fill:#24126a"/><path d="M134.75,117.93l-4.3-2.48a1.42,1.42,0,0,0-1.3,0l-1.32.77c-.38.22-.4.56-.06.76l4.29,2.48a1.44,1.44,0,0,0,1.31,0l1.32-.77C135.07,118.47,135.09,118.13,134.75,117.93Z" style="fill:#24126a"/><path d="M141.32,121.72l-4.3-2.47a1.42,1.42,0,0,0-1.3,0l-1.32.78c-.38.21-.4.55-.06.75l4.29,2.48a1.47,1.47,0,0,0,1.31,0l1.32-.78C141.64,122.26,141.66,121.92,141.32,121.72Z" style="fill:#24126a"/><path d="M147.89,125.52l-4.3-2.48a1.45,1.45,0,0,0-1.3,0l-1.32.78c-.38.22-.4.56-.06.76l4.29,2.47a1.44,1.44,0,0,0,1.31,0l1.32-.78C148.21,126.06,148.23,125.72,147.89,125.52Z" style="fill:#24126a"/><path d="M154.46,129.31l-4.3-2.48a1.42,1.42,0,0,0-1.3,0l-1.32.77c-.38.22-.4.56-.06.76l4.29,2.48a1.44,1.44,0,0,0,1.31,0l1.32-.77C154.78,129.85,154.8,129.51,154.46,129.31Z" style="fill:#24126a"/><path d="M191.14,150.49l-4.3-2.48a1.42,1.42,0,0,0-1.3,0l-1.33.77c-.37.22-.39.56-.05.76l4.29,2.47a1.44,1.44,0,0,0,1.31,0l1.32-.78C191.46,151,191.48,150.69,191.14,150.49Z" style="fill:#24126a"/><path d="M197.71,154.28l-4.3-2.48a1.42,1.42,0,0,0-1.3,0l-1.33.77c-.37.22-.39.56-.05.76l4.29,2.48a1.44,1.44,0,0,0,1.31,0l1.32-.77C198,154.82,198.05,154.48,197.71,154.28Z" style="fill:#24126a"/><path d="M204.28,158.07,200,155.6a1.42,1.42,0,0,0-1.3,0l-1.33.78c-.37.21-.39.55,0,.75l4.29,2.48a1.44,1.44,0,0,0,1.31,0l1.32-.77C204.6,158.61,204.62,158.27,204.28,158.07Z" style="fill:#24126a"/><path d="M210.85,161.87l-4.3-2.48a1.45,1.45,0,0,0-1.3,0l-1.32.78c-.38.22-.4.56-.06.76l4.29,2.47a1.44,1.44,0,0,0,1.31,0l1.32-.78C211.17,162.41,211.19,162.07,210.85,161.87Z" style="fill:#24126a"/><path d="M159,124.48l-4.3-2.48a1.46,1.46,0,0,0-1.3,0l-4,2.34c-.38.22-.4.56-.06.76l4.29,2.48a1.44,1.44,0,0,0,1.31,0l4-2.34C159.27,125,159.29,124.68,159,124.48Z" style="fill:#24126a"/><path d="M165.58,128.31l-4.3-2.48a1.42,1.42,0,0,0-1.3,0l-4,2.34c-.38.22-.4.56-.06.76l4.29,2.48a1.48,1.48,0,0,0,1.31,0l4-2.34C165.9,128.85,165.92,128.51,165.58,128.31Z" style="fill:#24126a"/><path d="M172.21,132.14l-4.3-2.48a1.42,1.42,0,0,0-1.3,0l-4,2.34c-.38.22-.4.56-.06.75l4.3,2.48a1.42,1.42,0,0,0,1.3,0l4-2.34C172.53,132.68,172.55,132.34,172.21,132.14Z" style="fill:#24126a"/><path d="M178.84,136l-4.29-2.48a1.44,1.44,0,0,0-1.31,0l-4,2.34c-.38.21-.4.55-.06.75l4.3,2.48a1.45,1.45,0,0,0,1.3,0l4-2.34C179.16,136.51,179.18,136.17,178.84,136Z" style="fill:#24126a"/><path d="M185.47,139.8l-4.29-2.48a1.44,1.44,0,0,0-1.31,0l-4,2.34c-.38.22-.4.56-.06.76l4.3,2.48a1.42,1.42,0,0,0,1.3,0l4-2.34C185.79,140.33,185.81,140,185.47,139.8Z" style="fill:#24126a"/><path d="M192.1,143.62l-4.29-2.47a1.44,1.44,0,0,0-1.31,0l-4,2.34c-.38.22-.4.56-.06.76l4.3,2.48a1.42,1.42,0,0,0,1.3,0l4-2.34C192.42,144.16,192.44,143.82,192.1,143.62Z" style="fill:#24126a"/><path d="M198.73,147.45,194.44,145a1.44,1.44,0,0,0-1.31,0l-4,2.34c-.38.22-.4.56-.06.76l4.3,2.48a1.45,1.45,0,0,0,1.3,0l4-2.34C199.05,148,199.07,147.65,198.73,147.45Z" style="fill:#24126a"/><path d="M205.36,151.28l-4.29-2.48a1.44,1.44,0,0,0-1.31,0l-4,2.34c-.38.22-.4.56-.06.76l4.3,2.47a1.42,1.42,0,0,0,1.3,0l4-2.34C205.68,151.82,205.71,151.48,205.36,151.28Z" style="fill:#24126a"/><path d="M212,155.11l-4.29-2.48a1.44,1.44,0,0,0-1.31,0l-4,2.34c-.38.22-.4.55-.06.75l4.3,2.48a1.42,1.42,0,0,0,1.3,0l4-2.34C212.31,155.65,212.34,155.31,212,155.11Z" style="fill:#24126a"/><path d="M158.63,103.13,146,95.82a1.45,1.45,0,0,0-1.3,0l-4,2.34c-.37.22-.4.56-.05.76l12.64,7.3a1.42,1.42,0,0,0,1.3,0l4-2.34C159,103.66,159,103.32,158.63,103.13Z" style="fill:#24126a"/><path d="M240.09,150.15l-12.64-7.3a1.48,1.48,0,0,0-1.31,0l-4,2.34c-.38.22-.4.56-.06.76l12.65,7.3a1.42,1.42,0,0,0,1.3,0l4-2.34C240.41,150.69,240.44,150.35,240.09,150.15Z" style="fill:#24126a"/><path d="M227.79,135.05l-4.29-2.48a1.42,1.42,0,0,0-1.3,0l-4.77,2.79c-.38.22-.4.56-.06.76l4.3,2.48a1.46,1.46,0,0,0,1.3,0l4.77-2.79C228.11,135.58,228.14,135.24,227.79,135.05Z" style="fill:#24126a"/><path d="M179.64,107.24l-6.86-4a1.44,1.44,0,0,0-1.31,0l-4.77,2.78c-.37.22-.4.56,0,.76l6.86,4a1.48,1.48,0,0,0,1.31,0l4.77-2.79C180,107.78,180,107.44,179.64,107.24Z" style="fill:#24126a"/><path d="M221.41,131.36l-6.87-4a1.42,1.42,0,0,0-1.3,0l-4.78,2.79c-.37.22-.39.55-.05.75l6.87,4a1.42,1.42,0,0,0,1.3,0l4.77-2.79C221.73,131.89,221.75,131.56,221.41,131.36Z" style="fill:#24126a"/><path d="M189.21,112.77l-6.87-4a1.42,1.42,0,0,0-1.3,0l-4.77,2.79c-.38.22-.4.56-.06.75l6.87,4a1.42,1.42,0,0,0,1.3,0l4.78-2.78C189.53,113.31,189.55,113,189.21,112.77Z" style="fill:#24126a"/><path d="M176.26,112.41l29.85,17.24a1.47,1.47,0,0,0,1.31,0l4.86-2.85c.35-.2.33-.54,0-.75l-29.85-17.24Z" style="fill:#24126a"/><path d="M240,145.66l4.78,2.76a1.19,1.19,0,0,0,1.07,0l1.95-1.14c.31-.18.33-.46,0-.62l-4.78-2.77a1.22,1.22,0,0,0-1.07,0L240.05,145C239.74,145.21,239.72,145.49,240,145.66Z" style="fill:#24126a"/><path d="M233.32,141.8l4.78,2.76a1.19,1.19,0,0,0,1.07,0l2-1.14c.31-.18.33-.46,0-.62L236.39,140a1.19,1.19,0,0,0-1.07,0l-1.95,1.15C233.06,141.35,233,141.63,233.32,141.8Z" style="fill:#24126a"/><path d="M226.69,138l4.78,2.76a1.19,1.19,0,0,0,1.07,0l2-1.14c.31-.18.33-.46,0-.62l-4.78-2.76a1.16,1.16,0,0,0-1.07,0l-1.95,1.14C226.43,137.53,226.41,137.8,226.69,138Z" style="fill:#24126a"/><path d="M229.87,143.81l4.79,2.76a1.17,1.17,0,0,0,1.06,0l2-1.14c.3-.18.32-.46,0-.62L232.94,142a1.19,1.19,0,0,0-1.07,0l-2,1.14C229.61,143.37,229.59,143.65,229.87,143.81Z" style="fill:#24126a"/></g></g></g><g style="opacity:0.8"><path d="M63.73,147.61l-4.25-2.45c-.34-.2-.3-.54.1-.77l5-2.9a1.46,1.46,0,0,1,1.33-.05l4.25,2.45c.34.2.3.54-.1.77l-5,2.9A1.48,1.48,0,0,1,63.73,147.61Z" style="fill:#24126a"/><path d="M70.3,151.4,66.05,149c-.34-.2-.3-.54.09-.77l5-2.9a1.49,1.49,0,0,1,1.33-.05l4.26,2.45c.34.2.3.54-.1.77l-5,2.9A1.46,1.46,0,0,1,70.3,151.4Z" style="fill:#24126a"/><path d="M76.87,155.2l-4.25-2.46c-.35-.2-.3-.54.09-.77l5-2.9a1.49,1.49,0,0,1,1.33,0l4.25,2.45c.35.2.3.55-.09.77l-5,2.9A1.49,1.49,0,0,1,76.87,155.2Z" style="fill:#24126a"/><path d="M86,152.06l-4.25-2.45c-.34-.2-.3-.54.09-.77L86,146.41a1.49,1.49,0,0,1,1.33-.06l4.25,2.46c.34.2.3.54-.1.77L87.28,152A1.46,1.46,0,0,1,86,152.06Z" style="fill:#24126a"/><path d="M92.52,155.86l-4.26-2.46c-.34-.2-.29-.54.1-.77l4.21-2.43a1.49,1.49,0,0,1,1.33-.06l4.26,2.46c.34.2.3.54-.1.77l-4.21,2.43A1.49,1.49,0,0,1,92.52,155.86Z" style="fill:#24126a"/><path d="M99.08,159.65l-4.25-2.46c-.34-.19-.3-.54.1-.77L99.14,154a1.46,1.46,0,0,1,1.33-.05l4.25,2.45c.34.2.3.54-.09.77l-4.22,2.43A1.49,1.49,0,0,1,99.08,159.65Z" style="fill:#24126a"/><path d="M105.65,163.44,101.4,161c-.34-.19-.3-.54.09-.77l4.22-2.43a1.46,1.46,0,0,1,1.33-.05l4.25,2.45c.34.2.3.54-.1.77L107,163.38A1.46,1.46,0,0,1,105.65,163.44Z" style="fill:#24126a"/><path d="M112.22,167.23,108,164.77c-.34-.19-.3-.54.1-.76l4.21-2.44a1.49,1.49,0,0,1,1.33,0l4.26,2.45c.34.2.29.54-.1.77l-4.21,2.43A1.46,1.46,0,0,1,112.22,167.23Z" style="fill:#24126a"/><path d="M118.78,171l-4.25-2.45c-.34-.2-.3-.55.1-.77l4.21-2.44a1.49,1.49,0,0,1,1.33-.05l4.25,2.45c.34.2.3.55-.09.77L120.11,171A1.49,1.49,0,0,1,118.78,171Z" style="fill:#24126a"/><path d="M125.35,174.81l-4.25-2.45c-.34-.2-.3-.54.09-.77l4.22-2.43a1.46,1.46,0,0,1,1.33-.06l4.25,2.46c.34.19.3.54-.1.76l-4.21,2.44A1.49,1.49,0,0,1,125.35,174.81Z" style="fill:#24126a"/><path d="M131.92,178.6l-4.26-2.45c-.34-.2-.3-.54.1-.77L132,173a1.46,1.46,0,0,1,1.33-.06l4.26,2.46c.34.19.29.54-.1.77l-4.21,2.43A1.46,1.46,0,0,1,131.92,178.6Z" style="fill:#24126a"/><path d="M138.48,182.39l-4.25-2.45c-.34-.2-.3-.54.1-.77l4.21-2.43a1.49,1.49,0,0,1,1.33-.06l4.25,2.46c.34.2.3.54-.09.77l-4.22,2.43A1.46,1.46,0,0,1,138.48,182.39Z" style="fill:#24126a"/><path d="M145.05,186.19l-4.25-2.46c-.34-.2-.3-.54.09-.77l4.22-2.43a1.49,1.49,0,0,1,1.33-.06l4.25,2.46c.34.2.3.54-.1.77l-4.21,2.43A1.49,1.49,0,0,1,145.05,186.19Z" style="fill:#24126a"/><path d="M95.62,150.27l-4.25-2.46c-.34-.19-.3-.54.1-.76l4.21-2.44a1.49,1.49,0,0,1,1.33-.05l4.26,2.45c.34.2.29.54-.1.77L97,150.21A1.48,1.48,0,0,1,95.62,150.27Z" style="fill:#24126a"/><path d="M89,146.42,84.71,144c-.34-.2-.3-.54.09-.77L89,140.77a1.46,1.46,0,0,1,1.33-.06l4.25,2.46c.34.19.3.54-.09.76l-4.22,2.44A1.49,1.49,0,0,1,89,146.42Z" style="fill:#24126a"/><path d="M82.28,142.57l-9.15-5.29c-.34-.2-.3-.54.09-.77l4.22-2.43a1.49,1.49,0,0,1,1.33-.06l9.16,5.29c.34.2.29.54-.1.77l-4.21,2.43A1.48,1.48,0,0,1,82.28,142.57Z" style="fill:#24126a"/><path d="M87,137.88l-7.43-4.29c-.34-.2-.3-.54.09-.77l4.22-2.43a1.49,1.49,0,0,1,1.33-.06l7.43,4.29c.34.2.3.55-.09.77l-4.22,2.44A1.49,1.49,0,0,1,87,137.88Z" style="fill:#24126a"/><path d="M102.19,154.06l-4.25-2.45c-.34-.2-.3-.55.09-.77l4.22-2.44a1.49,1.49,0,0,1,1.33-.05l4.25,2.45c.34.2.3.55-.09.77L103.52,154A1.49,1.49,0,0,1,102.19,154.06Z" style="fill:#24126a"/><path d="M108.76,157.85l-4.25-2.45c-.35-.2-.3-.54.09-.77l4.21-2.43a1.48,1.48,0,0,1,1.34-.06l4.25,2.46c.34.19.3.54-.1.76l-4.21,2.44A1.49,1.49,0,0,1,108.76,157.85Z" style="fill:#24126a"/><path d="M115.32,161.64l-4.25-2.45c-.34-.2-.3-.54.1-.77l4.21-2.43a1.46,1.46,0,0,1,1.33-.06l4.26,2.46c.34.19.29.54-.1.77l-4.21,2.43A1.48,1.48,0,0,1,115.32,161.64Z" style="fill:#24126a"/><path d="M121.89,165.43,117.64,163c-.34-.2-.3-.54.09-.77l4.22-2.43a1.49,1.49,0,0,1,1.33-.06l4.25,2.46c.34.2.3.54-.09.77l-4.22,2.43A1.46,1.46,0,0,1,121.89,165.43Z" style="fill:#24126a"/><path d="M128.46,169.23l-4.25-2.46c-.35-.2-.3-.54.09-.77l4.21-2.43a1.51,1.51,0,0,1,1.34-.06L134.1,166c.34.2.3.54-.1.77l-4.21,2.43A1.49,1.49,0,0,1,128.46,169.23Z" style="fill:#24126a"/><path d="M135,173l-4.25-2.46c-.34-.19-.3-.54.1-.77l4.21-2.43a1.46,1.46,0,0,1,1.33-.05l4.26,2.45c.34.2.29.54-.1.77L136.36,173A1.51,1.51,0,0,1,135,173Z" style="fill:#24126a"/><path d="M141.59,176.81l-4.25-2.46c-.34-.19-.3-.54.09-.77l4.22-2.43a1.46,1.46,0,0,1,1.33-.05l4.25,2.45c.34.2.3.54-.09.77l-4.22,2.43A1.46,1.46,0,0,1,141.59,176.81Z" style="fill:#24126a"/><path d="M148.16,180.6l-4.25-2.46c-.35-.19-.3-.54.09-.76l4.21-2.44a1.51,1.51,0,0,1,1.34-.05l4.25,2.45c.34.2.3.54-.1.77l-4.21,2.43A1.46,1.46,0,0,1,148.16,180.6Z" style="fill:#24126a"/><path d="M154.72,184.39l-4.25-2.45c-.34-.2-.3-.55.1-.77l4.21-2.44a1.49,1.49,0,0,1,1.33,0l4.26,2.45c.34.2.29.55-.1.77l-4.21,2.44A1.51,1.51,0,0,1,154.72,184.39Z" style="fill:#24126a"/><path d="M166.4,191.13l-9.28-5.36c-.34-.19-.3-.54.1-.76l4.21-2.44a1.49,1.49,0,0,1,1.33,0l9.28,5.35c.34.2.3.55-.1.77l-4.21,2.44A1.49,1.49,0,0,1,166.4,191.13Z" style="fill:#24126a"/><path d="M179.18,183.75l-7.83-4.52c-.34-.2-.3-.54.1-.77l4.21-2.43A1.49,1.49,0,0,1,177,176l7.83,4.52c.34.2.3.54-.09.77l-4.22,2.43A1.46,1.46,0,0,1,179.18,183.75Z" style="fill:#24126a"/><path d="M113.69,153.32l-4.25-2.46c-.34-.19-.3-.54.09-.76l4.22-2.44a1.49,1.49,0,0,1,1.33,0l4.25,2.45c.34.2.3.54-.09.77L115,153.26A1.46,1.46,0,0,1,113.69,153.32Z" style="fill:#24126a"/><path d="M107,149.43,102.71,147c-.34-.2-.3-.54.09-.77l4.22-2.43a1.49,1.49,0,0,1,1.33-.06l4.25,2.46c.34.19.3.54-.09.77l-4.22,2.43A1.46,1.46,0,0,1,107,149.43Z" style="fill:#24126a"/><path d="M100.23,145.55,96,143.09c-.34-.19-.3-.54.09-.77l4.22-2.43a1.46,1.46,0,0,1,1.33,0l4.25,2.45c.34.2.3.54-.09.77l-4.22,2.43A1.46,1.46,0,0,1,100.23,145.55Z" style="fill:#24126a"/><path d="M93.5,141.66l-4.25-2.45c-.34-.2-.3-.54.09-.77L93.56,136a1.46,1.46,0,0,1,1.33-.06l4.25,2.46c.34.19.3.54-.09.77l-4.22,2.43A1.46,1.46,0,0,1,93.5,141.66Z" style="fill:#24126a"/><path d="M120.26,157.11,116,154.66c-.35-.2-.3-.55.09-.77l4.21-2.44a1.51,1.51,0,0,1,1.34,0l4.25,2.45c.34.2.3.55-.1.77l-4.21,2.44A1.49,1.49,0,0,1,120.26,157.11Z" style="fill:#24126a"/><path d="M126.82,160.9l-4.25-2.45c-.34-.2-.3-.54.1-.77l4.21-2.43a1.46,1.46,0,0,1,1.33-.06l4.25,2.46c.35.19.3.54-.09.76l-4.21,2.44A1.51,1.51,0,0,1,126.82,160.9Z" style="fill:#24126a"/><path d="M133.39,164.69l-4.25-2.45c-.34-.2-.3-.54.09-.77l4.22-2.43a1.46,1.46,0,0,1,1.33-.06l4.25,2.46c.34.19.3.54-.09.77l-4.22,2.43A1.46,1.46,0,0,1,133.39,164.69Z" style="fill:#24126a"/><path d="M140,168.48,135.71,166c-.35-.2-.3-.54.09-.77l4.21-2.43a1.51,1.51,0,0,1,1.34-.06l4.25,2.46c.34.19.3.54-.1.77l-4.21,2.43A1.46,1.46,0,0,1,140,168.48Z" style="fill:#24126a"/><path d="M146.52,172.28l-4.25-2.46c-.34-.2-.3-.54.1-.77l4.21-2.43a1.49,1.49,0,0,1,1.33-.06l4.25,2.46c.35.2.3.54-.09.77l-4.21,2.43A1.51,1.51,0,0,1,146.52,172.28Z" style="fill:#24126a"/><path d="M153.09,176.07l-4.25-2.46c-.34-.2-.3-.54.09-.77l4.22-2.43a1.46,1.46,0,0,1,1.33,0l4.25,2.45c.34.2.3.54-.09.77L154.42,176A1.49,1.49,0,0,1,153.09,176.07Z" style="fill:#24126a"/><path d="M159.66,179.86l-4.26-2.46c-.34-.19-.29-.54.1-.77l4.21-2.43a1.48,1.48,0,0,1,1.34,0l4.25,2.45c.34.2.3.54-.1.77L161,179.8A1.46,1.46,0,0,1,159.66,179.86Z" style="fill:#24126a"/><path d="M166.22,183.65,162,181.19c-.34-.19-.3-.54.1-.76l4.21-2.44a1.49,1.49,0,0,1,1.33-.05l4.25,2.45c.35.2.3.54-.09.77l-4.21,2.43A1.48,1.48,0,0,1,166.22,183.65Z" style="fill:#24126a"/><path d="M172.79,187.44,168.54,185c-.34-.2-.3-.55.09-.77l4.22-2.44a1.49,1.49,0,0,1,1.33-.05l4.25,2.45c.34.2.3.55-.09.77l-4.22,2.44A1.49,1.49,0,0,1,172.79,187.44Z" style="fill:#24126a"/><path d="M110.23,143.94,106,141.49c-.34-.2-.3-.54.1-.77l4.21-2.43a1.46,1.46,0,0,1,1.33-.06l4.25,2.46c.35.19.3.54-.09.76l-4.22,2.44A1.49,1.49,0,0,1,110.23,143.94Z" style="fill:#24126a"/><path d="M103.7,140.17l-4.25-2.46c-.34-.19-.3-.54.09-.76l4.22-2.44a1.49,1.49,0,0,1,1.33,0l4.25,2.45c.34.2.3.54-.1.77L105,140.11A1.46,1.46,0,0,1,103.7,140.17Z" style="fill:#24126a"/><path d="M97.17,136.4l-4.26-2.46c-.34-.19-.3-.54.1-.77l4.21-2.43a1.46,1.46,0,0,1,1.33-.05l4.26,2.45c.34.2.29.54-.1.77l-4.21,2.43A1.49,1.49,0,0,1,97.17,136.4Z" style="fill:#24126a"/><path d="M90.63,132.62l-4.25-2.45c-.34-.2-.3-.54.09-.77L90.69,127a1.49,1.49,0,0,1,1.33-.06l4.25,2.46c.34.2.3.54-.09.77L92,132.57A1.46,1.46,0,0,1,90.63,132.62Z" style="fill:#24126a"/><path d="M97.35,128.75l-4.25-2.46c-.34-.2-.3-.54.09-.77l1.4-.8a1.49,1.49,0,0,1,1.33-.06l4.25,2.46c.34.19.3.54-.1.77l-1.39.8A1.49,1.49,0,0,1,97.35,128.75Z" style="fill:#24126a"/><path d="M105.88,133.67l-4.26-2.46c-.34-.19-.29-.54.1-.77l1.39-.8a1.48,1.48,0,0,1,1.34,0L108.7,132c.34.2.3.54-.1.77l-1.39.8A1.46,1.46,0,0,1,105.88,133.67Z" style="fill:#24126a"/><path d="M112.38,137.43,108.13,135c-.34-.2-.3-.54.1-.77l1.39-.8a1.46,1.46,0,0,1,1.33-.06l4.25,2.46c.35.19.3.54-.09.77l-1.39.8A1.51,1.51,0,0,1,112.38,137.43Z" style="fill:#24126a"/><path d="M118.89,141.18l-4.25-2.45c-.34-.2-.3-.54.09-.77l1.4-.81a1.49,1.49,0,0,1,1.33-.05l4.25,2.45c.34.2.3.55-.09.77l-1.4.81A1.49,1.49,0,0,1,118.89,141.18Z" style="fill:#24126a"/><path d="M125.4,144.94l-4.26-2.46c-.34-.19-.29-.54.1-.77l1.39-.8a1.48,1.48,0,0,1,1.34,0l4.25,2.45c.34.2.3.54-.1.77l-1.39.8A1.46,1.46,0,0,1,125.4,144.94Z" style="fill:#24126a"/><path d="M161.72,165.91l-4.25-2.45c-.34-.2-.3-.54.1-.77l1.39-.81a1.49,1.49,0,0,1,1.33,0l4.25,2.45c.34.2.3.54-.09.77l-1.39.81A1.51,1.51,0,0,1,161.72,165.91Z" style="fill:#24126a"/><path d="M168.23,169.67,164,167.21c-.34-.19-.3-.54.09-.77l1.4-.8a1.49,1.49,0,0,1,1.33-.06l4.25,2.46c.34.2.3.54-.1.77l-1.39.8A1.46,1.46,0,0,1,168.23,169.67Z" style="fill:#24126a"/><path d="M174.74,173.42,170.48,171c-.34-.2-.29-.54.1-.77l1.39-.8a1.46,1.46,0,0,1,1.33-.06l4.26,2.46c.34.19.3.54-.1.77l-1.39.8A1.46,1.46,0,0,1,174.74,173.42Z" style="fill:#24126a"/><path d="M181.24,177.18,177,174.73c-.34-.2-.3-.54.1-.77l1.39-.81a1.49,1.49,0,0,1,1.33-.05l4.25,2.45c.34.2.3.54-.09.77l-1.39.81A1.51,1.51,0,0,1,181.24,177.18Z" style="fill:#24126a"/><path d="M116.8,147.73l-4.25-2.45c-.34-.2-.3-.54.09-.77l4.22-2.43a1.46,1.46,0,0,1,1.33-.06l4.25,2.46c.34.19.3.54-.1.77l-4.21,2.43A1.46,1.46,0,0,1,116.8,147.73Z" style="fill:#24126a"/><path d="M123.37,151.52l-4.26-2.45c-.34-.2-.29-.54.1-.77l4.21-2.43a1.49,1.49,0,0,1,1.33-.06l4.26,2.46c.34.19.3.54-.1.77l-4.21,2.43A1.46,1.46,0,0,1,123.37,151.52Z" style="fill:#24126a"/><path d="M129.93,155.32l-4.25-2.46c-.34-.2-.3-.54.1-.77l4.21-2.43a1.49,1.49,0,0,1,1.33-.06l4.25,2.46c.35.2.3.54-.09.77l-4.22,2.43A1.49,1.49,0,0,1,129.93,155.32Z" style="fill:#24126a"/><path d="M136.5,159.11l-4.25-2.46c-.34-.2-.3-.54.09-.77l4.22-2.43a1.46,1.46,0,0,1,1.33,0l4.25,2.45c.34.2.3.54-.1.77l-4.21,2.43A1.49,1.49,0,0,1,136.5,159.11Z" style="fill:#24126a"/><path d="M143.07,162.9l-4.26-2.46c-.34-.19-.29-.54.1-.77l4.21-2.43a1.46,1.46,0,0,1,1.33-.05l4.26,2.45c.34.2.3.54-.1.77l-4.21,2.43A1.46,1.46,0,0,1,143.07,162.9Z" style="fill:#24126a"/><path d="M149.63,166.69l-4.25-2.46c-.34-.19-.3-.54.1-.76l4.21-2.44A1.49,1.49,0,0,1,151,161l4.25,2.45c.35.2.3.54-.09.77L151,166.63A1.46,1.46,0,0,1,149.63,166.69Z" style="fill:#24126a"/><path d="M156.2,170.48,152,168c-.34-.2-.3-.55.09-.77l4.22-2.44a1.49,1.49,0,0,1,1.33,0l4.25,2.45c.34.2.3.55-.1.77l-4.21,2.44A1.49,1.49,0,0,1,156.2,170.48Z" style="fill:#24126a"/><path d="M162.77,174.27l-4.26-2.45c-.34-.2-.29-.54.1-.77l4.21-2.43a1.46,1.46,0,0,1,1.33-.06l4.26,2.46c.34.19.3.54-.1.76l-4.21,2.44A1.49,1.49,0,0,1,162.77,174.27Z" style="fill:#24126a"/><path d="M169.33,178.06l-4.25-2.45c-.34-.2-.3-.54.1-.77l4.21-2.43a1.46,1.46,0,0,1,1.33-.06l4.25,2.46c.34.19.3.54-.09.77L170.66,178A1.46,1.46,0,0,1,169.33,178.06Z" style="fill:#24126a"/><path d="M79.26,148.2,66.73,141c-.34-.2-.29-.54.1-.77L71,137.77a1.51,1.51,0,0,1,1.34-.06l12.52,7.23c.34.2.3.55-.1.77l-4.21,2.44A1.49,1.49,0,0,1,79.26,148.2Z" style="fill:#24126a"/><path d="M159.93,194.78l-12.52-7.23c-.34-.2-.3-.54.09-.77l4.22-2.43a1.46,1.46,0,0,1,1.33-.06l12.52,7.23c.34.2.3.54-.1.77l-4.21,2.43A1.49,1.49,0,0,1,159.93,194.78Z" style="fill:#24126a"/><path d="M133.67,188l-4.25-2.45c-.34-.2-.3-.55.09-.77l5-2.9a1.49,1.49,0,0,1,1.33-.06l4.26,2.46c.34.2.29.54-.1.77l-5,2.9A1.49,1.49,0,0,1,133.67,188Z" style="fill:#24126a"/><path d="M86,160.46l-6.8-3.93c-.34-.2-.3-.54.1-.77l5-2.89a1.46,1.46,0,0,1,1.33-.06l6.8,3.93c.34.19.3.54-.1.77l-5,2.89A1.46,1.46,0,0,1,86,160.46Z" style="fill:#24126a"/><path d="M127.34,184.34l-6.8-3.93c-.34-.2-.3-.54.1-.77l5-2.9a1.49,1.49,0,0,1,1.33-.05l6.8,3.93c.34.19.3.54-.1.76l-5,2.9A1.49,1.49,0,0,1,127.34,184.34Z" style="fill:#24126a"/><path d="M95.46,165.93,88.66,162c-.35-.2-.3-.54.09-.77l5-2.89a1.46,1.46,0,0,1,1.33-.06l6.8,3.93c.34.19.3.54-.09.77l-5,2.89A1.46,1.46,0,0,1,95.46,165.93Z" style="fill:#24126a"/><path d="M95.15,158.31l29.56,17.07c.37.21.37.55,0,.76l-5.11,3a1.48,1.48,0,0,1-1.33,0L88.7,162Z" style="fill:#24126a"/><path d="M152,194.86l4.74,2.74c.28.16.24.44-.08.63l-2.05,1.18a1.23,1.23,0,0,1-1.1.05l-4.73-2.73c-.28-.17-.25-.45.08-.64l2.05-1.18A1.2,1.2,0,0,1,152,194.86Z" style="fill:#24126a"/><path d="M145.4,191l4.74,2.74c.28.16.24.44-.08.63L148,195.59a1.23,1.23,0,0,1-1.1,0l-4.73-2.74c-.28-.16-.25-.44.08-.63l2.05-1.18A1.2,1.2,0,0,1,145.4,191Z" style="fill:#24126a"/><path d="M138.83,187.25l4.74,2.73c.28.17.25.45-.08.64l-2.05,1.18a1.2,1.2,0,0,1-1.09,0l-4.74-2.74c-.28-.16-.24-.44.08-.63l2.05-1.18A1.21,1.21,0,0,1,138.83,187.25Z" style="fill:#24126a"/><path d="M149,189l4.73,2.73c.28.16.25.45-.08.63l-2.05,1.19a1.2,1.2,0,0,1-1.09,0l-4.74-2.73c-.28-.16-.24-.44.08-.63l2.05-1.19A1.26,1.26,0,0,1,149,189Z" style="fill:#24126a"/></g><path d="M216,86.78a2,2,0,0,1-1-.29,2.88,2.88,0,0,1-1.39-2.92,1.47,1.47,0,0,1,.83-1.06,1.74,1.74,0,0,1,1.58.16,2.91,2.91,0,0,1,1.39,2.93,1.46,1.46,0,0,1-.84,1.06A1.43,1.43,0,0,1,216,86.78Zm-1-3.94a1,1,0,0,0-.41.09,1,1,0,0,0-.57.74,2.43,2.43,0,0,0,1.18,2.43,1.27,1.27,0,0,0,1.16.14,1,1,0,0,0,.57-.74,2.42,2.42,0,0,0-1.17-2.43A1.55,1.55,0,0,0,215.06,82.84Z" style="fill:#42e8e0"/><path d="M221.43,89.9a2,2,0,0,1-1-.28,2.91,2.91,0,0,1-1.39-2.93,1.5,1.5,0,0,1,.84-1.06,1.75,1.75,0,0,1,1.57.17,2.89,2.89,0,0,1,1.39,2.93,1.49,1.49,0,0,1-.83,1.06A1.44,1.44,0,0,1,221.43,89.9Zm-1-3.93a1.06,1.06,0,0,0-.4.08,1,1,0,0,0-.57.74,2.43,2.43,0,0,0,1.17,2.44,1.35,1.35,0,0,0,1.17.14,1.05,1.05,0,0,0,.57-.74,2.44,2.44,0,0,0-1.18-2.44A1.57,1.57,0,0,0,220.47,86Z" style="fill:#42e8e0"/><path d="M228,91.8a1.29,1.29,0,0,1-2.07.75,2.67,2.67,0,0,1-1.28-2.68,1.3,1.3,0,0,1,2.07-.75A2.65,2.65,0,0,1,228,91.8Z" style="fill:#42e8e0"/><polygon points="124.23 32.06 121.33 30.39 121.56 29.05 124.45 30.72 124.23 32.06" style="fill:#42e8e0"/><polygon points="128.44 34.49 125.54 32.82 125.77 31.48 128.66 33.15 128.44 34.49" style="fill:#42e8e0"/><polygon points="120.06 29.66 113.71 25.99 113.94 24.65 120.29 28.32 120.06 29.66" style="fill:#42e8e0"/><polygon points="120.86 54.92 116.02 52.12 116.2 51 121.05 53.8 120.86 54.92" style="fill:#42e8e0"/><polygon points="125 57.31 122.57 55.91 122.76 54.79 125.19 56.19 125 57.31" style="fill:#42e8e0"/><polygon points="121.85 58.37 119.79 57.18 119.97 56.06 122.04 57.25 121.85 58.37" style="fill:#42e8e0"/><polygon points="125.31 60.37 122.89 58.97 123.07 57.85 125.5 59.25 125.31 60.37" style="fill:#42e8e0"/><polygon points="128.87 65.31 119.35 59.81 119.53 58.69 129.06 64.19 128.87 65.31" style="fill:#42e8e0"/><polygon points="120.61 87.3 111.09 81.8 111.28 80.68 120.8 86.18 120.61 87.3" style="fill:#42e8e0"/><polygon points="124.28 89.41 121.85 88.01 122.04 86.89 124.46 88.29 124.28 89.41" style="fill:#42e8e0"/><polygon points="120.97 63.63 118.91 62.43 119.09 61.31 121.16 62.51 120.97 63.63" style="fill:#42e8e0"/><polygon points="124.43 65.62 122.01 64.22 122.19 63.1 124.62 64.5 124.43 65.62" style="fill:#42e8e0"/><polygon points="123.7 68.08 118.47 65.06 118.65 63.94 123.89 66.96 123.7 68.08" style="fill:#42e8e0"/><polygon points="127.2 70.11 124.78 68.71 124.97 67.59 127.39 68.99 127.2 70.11" style="fill:#42e8e0"/><polygon points="130.73 72.14 128.3 70.74 128.49 69.62 130.91 71.02 130.73 72.14" style="fill:#42e8e0"/><polygon points="136.41 75.42 131.83 72.78 132.01 71.66 136.6 74.3 136.41 75.42" style="fill:#42e8e0"/><polygon points="132.78 79.09 130.36 77.69 130.55 76.57 132.97 77.97 132.78 79.09" style="fill:#42e8e0"/><polygon points="138.47 82.37 133.88 79.72 134.07 78.6 138.66 81.25 138.47 82.37" style="fill:#42e8e0"/><polygon points="120.01 71.71 117.58 70.31 117.77 69.19 120.19 70.59 120.01 71.71" style="fill:#42e8e0"/><polygon points="123.53 73.75 121.11 72.35 121.29 71.23 123.72 72.63 123.53 73.75" style="fill:#42e8e0"/><polygon points="129.22 77.03 124.63 74.38 124.82 73.26 129.4 75.91 129.22 77.03" style="fill:#42e8e0"/><polygon points="136.66 78.45 134.24 77.05 134.43 75.93 136.85 77.33 136.66 78.45" style="fill:#42e8e0"/><polygon points="140.19 80.48 137.76 79.08 137.95 77.96 140.37 79.36 140.19 80.48" style="fill:#42e8e0"/><polygon points="145.87 83.77 141.29 81.12 141.47 80 146.06 82.64 145.87 83.77" style="fill:#42e8e0"/><polygon points="128.07 91.6 125.64 90.2 125.83 89.08 128.25 90.48 128.07 91.6" style="fill:#42e8e0"/><polygon points="133.75 94.88 129.17 92.23 129.35 91.11 133.94 93.76 133.75 94.88" style="fill:#42e8e0"/><polygon points="119.13 76.97 116.7 75.57 116.89 74.45 119.31 75.85 119.13 76.97" style="fill:#42e8e0"/><polygon points="124.81 80.25 120.22 77.6 120.41 76.48 125 79.13 124.81 80.25" style="fill:#42e8e0"/><polygon points="130.71 96 128.28 94.61 128.47 93.48 130.9 94.88 130.71 96" style="fill:#42e8e0"/><polygon points="136.39 99.29 131.81 96.64 131.99 95.52 136.58 98.17 136.39 99.29" style="fill:#42e8e0"/><polygon points="136.11 69.49 133.69 68.09 133.88 66.97 136.3 68.37 136.11 69.49" style="fill:#42e8e0"/><polygon points="132.45 67.37 130.03 65.97 130.21 64.85 132.64 66.25 132.45 67.37" style="fill:#42e8e0"/><polygon points="141.8 72.77 137.21 70.12 137.4 69 141.99 71.65 141.8 72.77" style="fill:#42e8e0"/><polygon points="120.21 68.95 118.02 67.69 118.21 66.57 120.4 67.83 120.21 68.95" style="fill:#42e8e0"/><polygon points="126.69 72.69 121.38 69.63 121.57 68.5 126.88 71.57 126.69 72.69" style="fill:#42e8e0"/><polygon points="133.18 76.44 127.86 73.37 128.05 72.25 133.37 75.32 133.18 76.44" style="fill:#42e8e0"/><polygon points="145.17 74.71 142.98 73.45 143.17 72.33 145.35 73.59 145.17 74.71" style="fill:#42e8e0"/><polygon points="151.65 78.46 146.34 75.39 146.52 74.27 151.84 77.34 151.65 78.46" style="fill:#42e8e0"/><polygon points="158.13 82.2 152.82 79.13 153.01 78.01 158.32 81.08 158.13 82.2" style="fill:#42e8e0"/><polygon points="122.5 76.04 117.19 72.97 117.38 71.85 122.69 74.92 122.5 76.04" style="fill:#42e8e0"/><polygon points="125.31 77.65 123.67 76.71 123.86 75.59 125.49 76.53 125.31 77.65" style="fill:#42e8e0"/><polygon points="128.11 79.28 126.48 78.33 126.67 77.21 128.3 78.16 128.11 79.28" style="fill:#42e8e0"/><polygon points="133.3 82.27 129.29 79.95 129.48 78.83 133.49 81.15 133.3 82.27" style="fill:#42e8e0"/><polygon points="139.12 76.99 137.49 76.05 137.68 74.92 139.31 75.87 139.12 76.99" style="fill:#42e8e0"/><polygon points="144.31 79.98 140.3 77.67 140.49 76.55 144.5 78.86 144.31 79.98" style="fill:#42e8e0"/><polygon points="145.4 80.61 141.39 78.3 141.58 77.18 145.59 79.49 145.4 80.61" style="fill:#42e8e0"/><polygon points="124.03 95.03 118.79 92.01 118.98 90.89 124.22 93.91 124.03 95.03" style="fill:#42e8e0"/><polygon points="127.53 97.05 125.11 95.65 125.3 94.53 127.72 95.93 127.53 97.05" style="fill:#42e8e0"/><polygon points="131.05 99.09 128.63 97.69 128.82 96.57 131.24 97.97 131.05 99.09" style="fill:#42e8e0"/><polygon points="136.74 102.37 132.15 99.72 132.34 98.6 136.93 101.25 136.74 102.37" style="fill:#42e8e0"/><polygon points="140.38 104.47 137.95 103.07 138.14 101.95 140.56 103.35 140.38 104.47" style="fill:#42e8e0"/><polygon points="146.06 107.75 141.47 105.1 141.66 103.98 146.25 106.63 146.06 107.75" style="fill:#42e8e0"/><polygon points="128.62 103.44 126.2 102.04 126.39 100.92 128.81 102.32 128.62 103.44" style="fill:#42e8e0"/><polygon points="134.31 106.73 129.72 104.08 129.91 102.96 134.49 105.61 134.31 106.73" style="fill:#42e8e0"/><polygon points="115.96 96.14 113.54 94.74 113.73 93.62 116.15 95.02 115.96 96.14" style="fill:#42e8e0"/><polygon points="119.49 98.17 117.06 96.77 117.25 95.65 119.67 97.05 119.49 98.17" style="fill:#42e8e0"/><polygon points="125.17 101.45 120.59 98.8 120.77 97.68 125.36 100.33 125.17 101.45" style="fill:#42e8e0"/><polygon points="120.54 95.89 118.35 94.63 118.54 93.51 120.72 94.78 120.54 95.89" style="fill:#42e8e0"/><polygon points="127.02 99.64 121.71 96.57 121.89 95.45 127.21 98.52 127.02 99.64" style="fill:#42e8e0"/><polygon points="133.5 103.38 128.19 100.31 128.38 99.19 133.69 102.26 133.5 103.38" style="fill:#42e8e0"/><polygon points="114.17 97.98 108.86 94.92 109.05 93.8 114.36 96.86 114.17 97.98" style="fill:#42e8e0"/><polygon points="116.98 99.6 115.34 98.66 115.53 97.54 117.16 98.48 116.98 99.6" style="fill:#42e8e0"/><polygon points="119.78 101.22 118.15 100.28 118.34 99.16 119.97 100.1 119.78 101.22" style="fill:#42e8e0"/><polygon points="124.97 104.22 120.96 101.9 121.15 100.78 125.16 103.1 124.97 104.22" style="fill:#42e8e0"/><polygon points="126.06 104.85 122.05 102.53 122.24 101.41 126.25 103.73 126.06 104.85" style="fill:#42e8e0"/><polygon points="116.57 87.84 114.94 86.9 115.12 85.78 116.76 86.72 116.57 87.84" style="fill:#42e8e0"/><polygon points="121.76 90.84 117.74 88.52 117.93 87.4 121.95 89.72 121.76 90.84" style="fill:#42e8e0"/><polygon points="127.06 93.9 123.05 91.58 123.23 90.46 127.25 92.78 127.06 93.9" style="fill:#42e8e0"/><polygon points="147.5 111.46 145.07 110.06 145.26 108.94 147.69 110.34 147.5 111.46" style="fill:#42e8e0"/><polygon points="153.18 114.74 148.6 112.09 148.78 110.97 153.37 113.62 153.18 114.74" style="fill:#42e8e0"/><polygon points="138.55 106.3 134.53 103.98 134.72 102.86 138.74 105.17 138.55 106.3" style="fill:#42e8e0"/><polygon points="143.85 109.36 139.84 107.04 140.03 105.92 144.04 108.24 143.85 109.36" style="fill:#42e8e0"/><polygon points="113.73 76.73 112.1 75.79 112.28 74.67 113.92 75.61 113.73 76.73" style="fill:#42e8e0"/><polygon points="118.92 79.73 114.91 77.41 115.09 76.29 119.11 78.61 118.92 79.73" style="fill:#42e8e0"/><polygon points="124.22 82.79 120.21 80.47 120.4 79.35 124.41 81.67 124.22 82.79" style="fill:#42e8e0"/><path d="M204.34,123.63a2.19,2.19,0,0,1-1.12-.33l-32.46-18.73a4.48,4.48,0,0,1-1.91-4.32l2.08-12.38a2.29,2.29,0,0,1,1.19-1.78,2,2,0,0,1,1.87.15L206.45,105a4.47,4.47,0,0,1,1.91,4.32l-2.08,12.38a2.29,2.29,0,0,1-1.19,1.78A1.75,1.75,0,0,1,204.34,123.63ZM172.87,86.38a1.34,1.34,0,0,0-.56.12,1.84,1.84,0,0,0-.93,1.44l-2.08,12.39a4,4,0,0,0,1.69,3.84l32.45,18.74a1.58,1.58,0,0,0,1.46.14,1.84,1.84,0,0,0,.93-1.45l2.08-12.38a4,4,0,0,0-1.69-3.84L173.77,86.64A1.77,1.77,0,0,0,172.87,86.38Z" style="fill:#42e8e0"/><path d="M200.77,144.91a2.19,2.19,0,0,1-1.12-.33l-32.46-18.74a4.45,4.45,0,0,1-1.91-4.31l2.08-12.38a2.29,2.29,0,0,1,1.19-1.78,2,2,0,0,1,1.88.15l32.45,18.74a4.45,4.45,0,0,1,1.91,4.32L202.72,143a2.33,2.33,0,0,1-1.2,1.78A1.75,1.75,0,0,1,200.77,144.91Zm-.89-.72a1.56,1.56,0,0,0,1.45.14,1.88,1.88,0,0,0,.94-1.45l2.07-12.38a3.94,3.94,0,0,0-1.69-3.84L170.2,107.92a1.55,1.55,0,0,0-1.46-.14,1.85,1.85,0,0,0-.93,1.44l-2.08,12.39a4,4,0,0,0,1.69,3.84Z" style="fill:#42e8e0"/><path d="M173.68,103.23c.57.33,1.08.21,1.27-.31l3.79-10.34c.43-1.18,2.2-.11,2.57,1.55l2.33,10.41a3.05,3.05,0,0,0,1.3,1.87l.55.32c.54.31,1,.22,1.24-.23l.78-1.63c.47-1,2.07-.06,2.5,1.5h0a3,3,0,0,0,1.26,1.73l.49.28c.59.34,1.11.2,1.29-.35l.7-2.16c.4-1.21,2.17-.2,2.57,1.48l2.34,9.63a3,3,0,0,0,1.3,1.84Z" style="opacity:0.5;mix-blend-mode:lighten;fill:url(#Áåçûìÿííûé_ãðàäèåíò_21)"/><path d="M195.86,140a3.24,3.24,0,0,1-1.42-2l-2.33-9.63c-.25-1-1.08-1.82-1.66-1.84a.47.47,0,0,0-.48.38l-.7,2.16a1,1,0,0,1-.56.63,1.26,1.26,0,0,1-1.06-.16l-.49-.28a3.25,3.25,0,0,1-1.37-1.87,2.35,2.35,0,0,0-1.6-1.75.43.43,0,0,0-.47.29l-.78,1.63a.88.88,0,0,1-.55.5,1.23,1.23,0,0,1-1-.17l-.56-.32a3.3,3.3,0,0,1-1.4-2l-2.33-10.41a2.39,2.39,0,0,0-1.65-1.88.46.46,0,0,0-.48.35L171.17,124a.94.94,0,0,1-.56.59,1.22,1.22,0,0,1-1-.16l.23-.39a.8.8,0,0,0,.66.12.46.46,0,0,0,.28-.31l3.79-10.34a.9.9,0,0,1,.94-.65,2.79,2.79,0,0,1,2.07,2.23l2.33,10.41a2.75,2.75,0,0,0,1.18,1.71l.56.33a.85.85,0,0,0,.64.13.45.45,0,0,0,.28-.26l.77-1.64a.9.9,0,0,1,.93-.54,2.73,2.73,0,0,1,2,2.08,2.85,2.85,0,0,0,1.16,1.6l.49.28a.82.82,0,0,0,.67.12.49.49,0,0,0,.28-.34l.71-2.16a.9.9,0,0,1,.88-.69h.05a2.75,2.75,0,0,1,2.08,2.18l2.33,9.64a2.79,2.79,0,0,0,1.2,1.68Z" style="fill:#42e8e0"/><path d="M182.83,75.83a2.84,2.84,0,0,1-1.42-.4L156,60.78a4.51,4.51,0,0,1-1.95-4.86,2.68,2.68,0,0,1,1.54-1.87,2.58,2.58,0,0,1,2.32.23l25.37,14.65a4.51,4.51,0,0,1,2,4.86,2.72,2.72,0,0,1-1.55,1.87A2.48,2.48,0,0,1,182.83,75.83Zm-26.3-21.5a2,2,0,0,0-.73.14A2.28,2.28,0,0,0,154.52,56a4,4,0,0,0,1.75,4.34L181.64,75a2.11,2.11,0,0,0,1.92.2,2.23,2.23,0,0,0,1.28-1.56,4,4,0,0,0-1.74-4.35L157.72,54.67A2.35,2.35,0,0,0,156.53,54.33Z" style="fill:#42e8e0"/></g></g></g></svg>