<svg id="Camada_1" data-name="Camada 1" xmlns="http://www.w3.org/2000/svg" xmlns:xlink="http://www.w3.org/1999/xlink" viewBox="0 0 242.7 253.81"><defs><linearGradient id="Gradiente_sem_nome" x1="-3642.6" y1="1836.63" x2="-3486.31" y2="1836.63" gradientTransform="matrix(-1, 0, 0, 1, -3399.91, -1743.99)" gradientUnits="userSpaceOnUse"><stop offset="0" stop-color="#c0bff6"/><stop offset="0.29" stop-color="#c5c4f7"/><stop offset="0.64" stop-color="#d3d2f9"/><stop offset="1" stop-color="#e9e9fd"/></linearGradient><linearGradient id="Gradiente_sem_nome_2" x1="-3642.61" y1="1876.72" x2="-3615.77" y2="1876.72" gradientTransform="matrix(-1, 0, 0, 1, -3399.91, -1743.99)" gradientUnits="userSpaceOnUse"><stop offset="0" stop-color="#5761d7"/><stop offset="0.18" stop-color="#5c66d9"/><stop offset="0.39" stop-color="#6a73df"/><stop offset="0.61" stop-color="#8289e8"/><stop offset="0.85" stop-color="#a3a7f5"/><stop offset="1" stop-color="#bcbeff"/></linearGradient><linearGradient id="Gradiente_sem_nome_3" x1="-3621.7" y1="1920.48" x2="-3400.91" y2="1920.48" xlink:href="#Gradiente_sem_nome_2"/><linearGradient id="Gradiente_sem_nome_4" x1="-3719.75" y1="1914.45" x2="-3394.42" y2="1914.45" xlink:href="#Gradiente_sem_nome"/><clipPath id="clip-path"><polygon points="238.98 81.86 103.02 3.4 85.94 104.96 221.81 183.37 238.98 81.86" style="fill:none"/></clipPath><linearGradient id="Gradiente_sem_nome_5" x1="-3706.57" y1="1871.88" x2="-3485.79" y2="1871.88" xlink:href="#Gradiente_sem_nome_2"/><linearGradient id="Gradiente_sem_nome_6" x1="-3632.38" y1="1865.86" x2="-3411.47" y2="1865.86" xlink:href="#Gradiente_sem_nome"/><linearGradient id="Gradiente_sem_nome_7" x1="324.6" y1="1843.63" x2="371.23" y2="1863.58" gradientTransform="translate(-148.43 -1743.99)" gradientUnits="userSpaceOnUse"><stop offset="0" stop-color="#42e8e0"/><stop offset="0.11" stop-color="#37b6bf"/><stop offset="0.22" stop-color="#2c87a1"/><stop offset="0.34" stop-color="#235f87"/><stop offset="0.46" stop-color="#1c3f72"/><stop offset="0.58" stop-color="#162561"/><stop offset="0.71" stop-color="#121355"/><stop offset="0.85" stop-color="#10084e"/><stop offset="1" stop-color="#0f054c"/></linearGradient></defs><g id="Camada_2" data-name="Camada 2"><g id="Ñëîé_1" data-name="Ñëîé 1"><path d="M138.43,253.81a6.17,6.17,0,0,1-3-.77l-134-77.33a2.53,2.53,0,0,1-1.45-2A1.94,1.94,0,0,1,1.1,172L81,125.87a6,6,0,0,1,5.43.21l134,77.33a2.49,2.49,0,0,1,1.46,2,2,2,0,0,1-1.1,1.66l-80,46.14A4.91,4.91,0,0,1,138.43,253.81ZM1.93,174.88l134,77.33a5.06,5.06,0,0,0,4.47.21l79.93-46.15a1.05,1.05,0,0,0,.62-.83c0-.4-.37-.85-1-1.2L86,126.9a5.08,5.08,0,0,0-4.48-.2L1.57,172.85a1,1,0,0,0-.61.82c0,.41.36.86,1,1.21Z" style="fill:#42e8e0"/><path d="M86.41,102.38,103.34,1.93,102,1.35l2-1.17h0a1.48,1.48,0,0,1,1.58.11L240.92,78.43a3.81,3.81,0,0,1,1.76,3.43L225.61,183.12a1.28,1.28,0,0,1-.71,1h0l-2,1.16-.35-1.87h.12L88.16,105.82A3.83,3.83,0,0,1,86.41,102.38Z" style="fill:url(#Gradiente_sem_nome)"/><path d="M240.16,81.17l2.23-1a3.11,3.11,0,0,1,.29,1.67L225.61,183.12a1.28,1.28,0,0,1-.71,1h0l-2,1.16-.35-1.87h.12l-6.81-3.93Z" style="fill:url(#Gradiente_sem_nome_2)"/><path d="M86,107l135.32,78.12c1,.61,1.94.26,2.13-.82l17.1-101.23a3.8,3.8,0,0,0-1.75-3.43L103.47,1.52c-1-.61-1.93-.26-2.12.82L84.28,103.6A3.84,3.84,0,0,0,86,107Z" style="fill:#24126a"/><g style="opacity:0.5099999904632568"><polygon points="103.02 3.4 238.98 81.86 221.81 183.37 85.94 104.96 103.02 3.4" style="fill:#453c9e"/></g><path d="M1,155l7.38,3.86,74.05-42.75a5.36,5.36,0,0,1,4.84.2L215,190c1.22-.68,6.79-3.36,6.79-3.36l-2.7,4.39h0a1.66,1.66,0,0,1-.76.83l-78,45a5.34,5.34,0,0,1-4.83-.2L4.77,161.25a2.36,2.36,0,0,1-1.1-1.17h0Z" style="fill:url(#Gradiente_sem_nome_3)"/><path d="M2.12,156.19l134,77.33a5.48,5.48,0,0,0,5,.21L221,187.58c1.27-.73,1.11-2-.36-2.86l-134-77.33a5.48,5.48,0,0,0-5-.21L1.77,153.33C.5,154.06.65,155.34,2.12,156.19Z" style="fill:url(#Gradiente_sem_nome_4)"/><path d="M2.12,155.59l134,77.33a5.48,5.48,0,0,0,5,.21L221,187a1.59,1.59,0,0,0,.8-.94,1.36,1.36,0,0,1-.8,1.54l-80,46.12a5.48,5.48,0,0,1-5-.21L2.12,156.19c-1-.55-1.34-1.28-1.16-1.93A2.31,2.31,0,0,0,2.12,155.59Z" style="fill:#fff"/><g style="opacity:0.15000000596046448"><g style="clip-path:url(#clip-path)"><path d="M85.88,106.38l7.38,3.86,74.05-42.75a5.36,5.36,0,0,1,4.84.2l127.71,73.74c1.23-.69,6.8-3.37,6.8-3.37l-2.71,4.4h0a1.62,1.62,0,0,1-.75.84l-78,45a5.36,5.36,0,0,1-4.84-.2L89.67,112.66a2.36,2.36,0,0,1-1.1-1.17h0Z" style="fill:url(#Gradiente_sem_nome_5)"/><path d="M87,107.6l134,77.33a5.54,5.54,0,0,0,5,.21L305.85,139c1.27-.73,1.11-2-.36-2.86L171.55,58.8a5.54,5.54,0,0,0-5-.21L86.66,104.74C85.39,105.47,85.55,106.75,87,107.6Z" style="fill:url(#Gradiente_sem_nome_6)"/><path d="M305.49,136.13,171.55,58.8a5.77,5.77,0,0,0-3.31-.68,5.76,5.76,0,0,1,2.32.68L304.5,136.13c1.47.85,1.63,2.13.36,2.86l-79.93,46.15a4,4,0,0,1-1.64.46,4.79,4.79,0,0,0,2.63-.46L305.85,139C307.12,138.26,307,137,305.49,136.13Z" style="fill:#fff"/><g style="opacity:0.5"><path d="M157.18,94.28l-4.29-2.47a1.44,1.44,0,0,0-1.31,0l-4.77,2.79c-.37.22-.4.56-.05.76l4.29,2.48a1.42,1.42,0,0,0,1.3,0L157.12,95C157.5,94.82,157.52,94.48,157.18,94.28Z" style="fill:#24126a"/><path d="M163.81,98.11l-4.29-2.48a1.51,1.51,0,0,0-1.31,0l-4.77,2.79c-.37.22-.4.56-.05.76l4.29,2.47a1.42,1.42,0,0,0,1.3,0l4.77-2.79C164.13,98.65,164.15,98.31,163.81,98.11Z" style="fill:#24126a"/><path d="M170.44,101.94l-4.29-2.48a1.44,1.44,0,0,0-1.31,0l-4.77,2.79c-.37.22-.4.55,0,.75l4.29,2.48a1.42,1.42,0,0,0,1.3,0l4.78-2.79a.41.41,0,0,0,.21-.54A.43.43,0,0,0,170.44,101.94Z" style="fill:#24126a"/><path d="M165.39,107l-4.29-2.48a1.42,1.42,0,0,0-1.3,0l-4,2.34c-.38.22-.4.56,0,.76l4.29,2.48a1.42,1.42,0,0,0,1.3,0l4-2.34a.41.41,0,0,0,.23-.53A.43.43,0,0,0,165.39,107Z" style="fill:#24126a"/><path d="M172,110.86l-4.29-2.47a1.42,1.42,0,0,0-1.3,0l-4,2.34c-.37.22-.4.56,0,.76L166.7,114a1.42,1.42,0,0,0,1.3,0l4-2.34C172.34,111.4,172.37,111.06,172,110.86Z" style="fill:#24126a"/><path d="M178.65,114.69l-4.29-2.48a1.42,1.42,0,0,0-1.3,0l-4,2.34c-.37.22-.4.56-.05.76l4.29,2.48a1.42,1.42,0,0,0,1.3,0l4-2.34C179,115.23,179,114.89,178.65,114.69Z" style="fill:#24126a"/><path d="M185.28,118.52,181,116a1.42,1.42,0,0,0-1.3,0l-4,2.34c-.37.22-.4.56,0,.76l4.29,2.47a1.42,1.42,0,0,0,1.3,0l4-2.34A.39.39,0,0,0,185.28,118.52Z" style="fill:#24126a"/><path d="M191.91,122.35l-4.29-2.48a1.42,1.42,0,0,0-1.3,0l-4,2.34c-.37.22-.4.55,0,.75l4.29,2.48a1.42,1.42,0,0,0,1.3,0l4-2.34C192.23,122.89,192.26,122.55,191.91,122.35Z" style="fill:#24126a"/><path d="M198.54,126.18l-4.29-2.48a1.42,1.42,0,0,0-1.3,0L189,126c-.37.22-.4.56,0,.76l4.29,2.48a1.42,1.42,0,0,0,1.3,0l4-2.34A.4.4,0,0,0,198.54,126.18Z" style="fill:#24126a"/><path d="M205.18,130l-4.3-2.48a1.42,1.42,0,0,0-1.3,0l-4,2.34c-.37.22-.4.56,0,.76l4.29,2.48a1.42,1.42,0,0,0,1.3,0l4-2.34C205.5,130.54,205.52,130.2,205.18,130Z" style="fill:#24126a"/><path d="M211.81,133.83l-4.3-2.48a1.42,1.42,0,0,0-1.3,0l-4,2.34c-.37.22-.4.56,0,.76l4.29,2.48a1.44,1.44,0,0,0,1.31,0l4-2.34C212.13,134.37,212.15,134,211.81,133.83Z" style="fill:#24126a"/><path d="M218.44,137.66l-4.3-2.48a1.42,1.42,0,0,0-1.3,0l-4,2.34c-.37.22-.4.56-.05.76l4.29,2.47a1.44,1.44,0,0,0,1.31,0l4-2.34C218.76,138.2,218.78,137.86,218.44,137.66Z" style="fill:#24126a"/><path d="M225.07,141.49l-4.3-2.48a1.42,1.42,0,0,0-1.3,0l-4,2.34c-.37.22-.39.55-.05.75l4.29,2.48a1.44,1.44,0,0,0,1.31,0l4-2.34C225.39,142,225.41,141.69,225.07,141.49Z" style="fill:#24126a"/><path d="M162.63,112.5,158.34,110a1.44,1.44,0,0,0-1.31,0l-4,2.34c-.38.22-.4.56-.06.76l4.3,2.47a1.42,1.42,0,0,0,1.3,0l4-2.34C163,113,163,112.7,162.63,112.5Z" style="fill:#24126a"/><path d="M155.9,108.62l-4.29-2.48a1.44,1.44,0,0,0-1.31,0l-4,2.34c-.38.22-.4.56-.06.76l4.3,2.48a1.42,1.42,0,0,0,1.3,0l4-2.34C156.22,109.15,156.24,108.81,155.9,108.62Z" style="fill:#24126a"/><path d="M149.16,104.72l-9.25-5.33a1.42,1.42,0,0,0-1.3,0l-4,2.34c-.37.22-.4.56,0,.76l9.25,5.34a1.42,1.42,0,0,0,1.3,0l4-2.34C149.48,105.26,149.5,104.92,149.16,104.72Z" style="fill:#24126a"/><path d="M141.34,107.27l-7.5-4.33a1.44,1.44,0,0,0-1.31,0l-4,2.34c-.38.22-.4.56-.06.76l7.51,4.33a1.42,1.42,0,0,0,1.3,0l4-2.34C141.66,107.81,141.68,107.47,141.34,107.27Z" style="fill:#24126a"/><path d="M169.26,116.33,165,113.85a1.44,1.44,0,0,0-1.31,0l-4,2.34c-.38.22-.4.55-.06.75l4.3,2.48a1.42,1.42,0,0,0,1.3,0l4-2.34C169.58,116.87,169.6,116.53,169.26,116.33Z" style="fill:#24126a"/><path d="M175.89,120.16l-4.29-2.48a1.44,1.44,0,0,0-1.31,0l-4,2.34c-.38.22-.4.56-.06.76l4.3,2.48a1.42,1.42,0,0,0,1.3,0l4-2.34C176.21,120.7,176.24,120.36,175.89,120.16Z" style="fill:#24126a"/><path d="M182.52,124l-4.29-2.48a1.44,1.44,0,0,0-1.31,0l-4,2.34c-.38.22-.4.56-.06.76l4.3,2.48a1.42,1.42,0,0,0,1.3,0l4-2.34C182.84,124.52,182.87,124.18,182.52,124Z" style="fill:#24126a"/><path d="M189.15,127.81l-4.29-2.48a1.42,1.42,0,0,0-1.3,0l-4,2.34c-.38.22-.4.56-.05.76l4.29,2.48a1.42,1.42,0,0,0,1.3,0l4-2.34C189.47,128.35,189.5,128,189.15,127.81Z" style="fill:#24126a"/><path d="M195.78,131.64l-4.29-2.48a1.42,1.42,0,0,0-1.3,0l-4,2.34c-.37.22-.4.56-.05.76l4.29,2.47a1.42,1.42,0,0,0,1.3,0l4-2.34C196.1,132.18,196.13,131.84,195.78,131.64Z" style="fill:#24126a"/><path d="M202.41,135.47,198.12,133a1.42,1.42,0,0,0-1.3,0l-4,2.34c-.37.22-.4.56,0,.75l4.29,2.48a1.42,1.42,0,0,0,1.3,0l4-2.34C202.73,136,202.76,135.67,202.41,135.47Z" style="fill:#24126a"/><path d="M209,139.3l-4.29-2.48a1.42,1.42,0,0,0-1.3,0l-4,2.34c-.37.21-.4.55,0,.75l4.29,2.48a1.42,1.42,0,0,0,1.3,0l4-2.35C209.36,139.84,209.39,139.5,209,139.3Z" style="fill:#24126a"/><path d="M215.67,143.13l-4.29-2.48a1.42,1.42,0,0,0-1.3,0l-4,2.34c-.37.22-.4.56,0,.76l4.29,2.48a1.42,1.42,0,0,0,1.3,0l4-2.34C216,143.66,216,143.33,215.67,143.13Z" style="fill:#24126a"/><path d="M222.3,147l-4.3-2.47a1.42,1.42,0,0,0-1.3,0l-4,2.34c-.37.22-.4.56,0,.76l4.29,2.48a1.42,1.42,0,0,0,1.3,0l4-2.34C222.62,147.49,222.65,147.15,222.3,147Z" style="fill:#24126a"/><path d="M234.09,153.76l-9.37-5.41a1.42,1.42,0,0,0-1.3,0l-4,2.34c-.38.22-.4.56-.06.75l9.37,5.41a1.42,1.42,0,0,0,1.3,0l4-2.34C234.41,154.3,234.44,154,234.09,153.76Z" style="fill:#24126a"/><path d="M221.94,160.86,214,156.3a1.42,1.42,0,0,0-1.3,0l-4,2.34c-.37.22-.4.56,0,.76l7.9,4.56a1.44,1.44,0,0,0,1.31,0l4-2.34C222.26,161.4,222.28,161.06,221.94,160.86Z" style="fill:#24126a"/><path d="M168.34,122.86l-4.29-2.48a1.44,1.44,0,0,0-1.31,0l-4,2.34c-.38.22-.4.56-.06.76L163,126a1.42,1.42,0,0,0,1.3,0l4-2.34C168.66,123.4,168.68,123.06,168.34,122.86Z" style="fill:#24126a"/><path d="M161.54,118.93l-4.29-2.48a1.42,1.42,0,0,0-1.3,0l-4,2.34c-.37.22-.4.56,0,.76l4.29,2.48a1.42,1.42,0,0,0,1.3,0l4-2.34C161.86,119.47,161.89,119.13,161.54,118.93Z" style="fill:#24126a"/><path d="M154.75,115l-4.29-2.48a1.44,1.44,0,0,0-1.31,0l-4,2.34c-.38.22-.4.56-.06.75l4.3,2.48a1.42,1.42,0,0,0,1.3,0l4-2.34C155.07,115.55,155.09,115.21,154.75,115Z" style="fill:#24126a"/><path d="M148,111.09l-4.29-2.48a1.42,1.42,0,0,0-1.3,0l-4,2.34c-.37.22-.4.56,0,.76l4.29,2.48a1.42,1.42,0,0,0,1.3,0l4-2.34a.44.44,0,0,0,.16-.6A.41.41,0,0,0,148,111.09Z" style="fill:#24126a"/><path d="M175,126.69l-4.29-2.48a1.44,1.44,0,0,0-1.31,0l-4,2.34c-.38.22-.4.56-.06.76l4.3,2.48a1.42,1.42,0,0,0,1.3,0l4-2.34C175.29,127.22,175.32,126.88,175,126.69Z" style="fill:#24126a"/><path d="M181.6,130.51l-4.29-2.5a1.51,1.51,0,0,0-1.31,0l-4,2.34c-.38.22-.4.56-.06.76l4.3,2.48a1.42,1.42,0,0,0,1.3,0l4-2.34C181.92,131,182,130.71,181.6,130.51Z" style="fill:#24126a"/><path d="M188.23,134.34l-4.29-2.48a1.42,1.42,0,0,0-1.3,0l-4,2.34c-.38.22-.4.56-.06.76l4.3,2.47a1.42,1.42,0,0,0,1.3,0l4-2.34C188.55,134.88,188.58,134.54,188.23,134.34Z" style="fill:#24126a"/><path d="M194.86,138.17l-4.29-2.48a1.42,1.42,0,0,0-1.3,0l-4,2.34c-.37.22-.4.56,0,.75l4.29,2.48a1.42,1.42,0,0,0,1.3,0l4-2.34C195.18,138.71,195.21,138.37,194.86,138.17Z" style="fill:#24126a"/><path d="M201.49,142l-4.29-2.48a1.42,1.42,0,0,0-1.3,0l-4,2.34c-.37.21-.4.55,0,.75l4.29,2.48a1.42,1.42,0,0,0,1.3,0l4-2.35C201.81,142.54,201.84,142.2,201.49,142Z" style="fill:#24126a"/><path d="M208.12,145.83l-4.29-2.48a1.42,1.42,0,0,0-1.3,0l-4,2.34c-.37.22-.4.56-.05.76l4.29,2.48a1.42,1.42,0,0,0,1.3,0l4-2.34C208.44,146.36,208.47,146,208.12,145.83Z" style="fill:#24126a"/><path d="M214.75,149.65l-4.29-2.47a1.42,1.42,0,0,0-1.3,0l-4,2.34c-.37.22-.4.56,0,.76l4.29,2.48a1.42,1.42,0,0,0,1.3,0l4-2.34C215.07,150.19,215.1,149.85,214.75,149.65Z" style="fill:#24126a"/><path d="M221.38,153.48,217.09,151a1.42,1.42,0,0,0-1.3,0l-4,2.34c-.37.22-.4.56,0,.76l4.29,2.48a1.42,1.42,0,0,0,1.3,0l4-2.34C221.7,154,221.73,153.68,221.38,153.48Z" style="fill:#24126a"/><path d="M228,157.31l-4.29-2.48a1.42,1.42,0,0,0-1.3,0l-4,2.34c-.37.22-.4.56,0,.75l4.29,2.48a1.42,1.42,0,0,0,1.3,0l4-2.34C228.33,157.85,228.36,157.51,228,157.31Z" style="fill:#24126a"/><path d="M152.32,120.67l-4.3-2.48a1.42,1.42,0,0,0-1.3,0l-4,2.34c-.37.22-.39.56-.05.76l4.29,2.48a1.44,1.44,0,0,0,1.31,0l4-2.34C152.64,121.2,152.66,120.86,152.32,120.67Z" style="fill:#24126a"/><path d="M145.72,116.86l-4.29-2.48a1.44,1.44,0,0,0-1.31,0l-4,2.34c-.38.22-.4.56-.06.76l4.3,2.48a1.42,1.42,0,0,0,1.3,0l4-2.34C146,117.39,146.06,117.06,145.72,116.86Z" style="fill:#24126a"/><path d="M139.12,113l-4.29-2.48a1.42,1.42,0,0,0-1.3,0l-4,2.34c-.38.22-.4.56-.06.76l4.3,2.48a1.42,1.42,0,0,0,1.3,0l4-2.34a.4.4,0,0,0,.05-.76Z" style="fill:#24126a"/><path d="M132.52,109.24l-4.29-2.48a1.42,1.42,0,0,0-1.3,0l-4,2.34c-.37.21-.4.55,0,.75l4.29,2.48a1.42,1.42,0,0,0,1.3,0l4-2.34C132.84,109.78,132.87,109.44,132.52,109.24Z" style="fill:#24126a"/><path d="M126.14,113l-4.3-2.48a1.42,1.42,0,0,0-1.3,0l-1.32.77c-.38.22-.4.56-.06.76l4.29,2.48a1.44,1.44,0,0,0,1.31,0l1.32-.77C126.46,113.51,126.48,113.17,126.14,113Z" style="fill:#24126a"/><path d="M134.75,117.94l-4.3-2.48a1.42,1.42,0,0,0-1.3,0l-1.32.77c-.38.22-.4.56-.06.76l4.29,2.48a1.44,1.44,0,0,0,1.31,0l1.32-.77C135.07,118.48,135.09,118.14,134.75,117.94Z" style="fill:#24126a"/><path d="M141.32,121.73l-4.3-2.47a1.42,1.42,0,0,0-1.3,0l-1.32.78c-.38.21-.4.55-.06.75l4.29,2.48a1.44,1.44,0,0,0,1.31,0l1.32-.78C141.64,122.27,141.66,121.93,141.32,121.73Z" style="fill:#24126a"/><path d="M147.89,125.53l-4.3-2.48a1.42,1.42,0,0,0-1.3,0l-1.32.78c-.38.22-.4.56-.06.76l4.29,2.47a1.44,1.44,0,0,0,1.31,0l1.32-.78C148.21,126.07,148.23,125.73,147.89,125.53Z" style="fill:#24126a"/><path d="M154.46,129.32l-4.3-2.48a1.42,1.42,0,0,0-1.3,0l-1.32.77c-.38.22-.4.56-.06.76l4.29,2.48a1.44,1.44,0,0,0,1.31,0l1.32-.77C154.78,129.86,154.8,129.52,154.46,129.32Z" style="fill:#24126a"/><path d="M191.14,150.5l-4.3-2.48a1.42,1.42,0,0,0-1.3,0l-1.33.77c-.37.22-.39.56-.05.76l4.29,2.47a1.44,1.44,0,0,0,1.31,0l1.32-.78C191.46,151,191.48,150.7,191.14,150.5Z" style="fill:#24126a"/><path d="M197.71,154.29l-4.3-2.48a1.42,1.42,0,0,0-1.3,0l-1.33.77c-.37.22-.39.56-.05.76l4.29,2.48a1.44,1.44,0,0,0,1.31,0l1.32-.77C198,154.83,198.05,154.49,197.71,154.29Z" style="fill:#24126a"/><path d="M204.28,158.08,200,155.61a1.42,1.42,0,0,0-1.3,0l-1.33.78c-.37.21-.39.55,0,.75l4.29,2.48a1.44,1.44,0,0,0,1.31,0l1.32-.77C204.6,158.62,204.62,158.28,204.28,158.08Z" style="fill:#24126a"/><path d="M210.85,161.88l-4.3-2.48a1.42,1.42,0,0,0-1.3,0l-1.32.78c-.38.22-.4.56-.06.76l4.29,2.47a1.44,1.44,0,0,0,1.31,0l1.32-.78C211.17,162.42,211.19,162.08,210.85,161.88Z" style="fill:#24126a"/><path d="M159,124.49,154.7,122a1.48,1.48,0,0,0-1.3,0l-4,2.34c-.38.22-.4.56-.06.76l4.29,2.48a1.44,1.44,0,0,0,1.31,0l4-2.34C159.27,125,159.29,124.69,159,124.49Z" style="fill:#24126a"/><path d="M165.58,128.32l-4.3-2.48a1.42,1.42,0,0,0-1.3,0l-4,2.34c-.38.22-.4.56-.06.76l4.29,2.48a1.51,1.51,0,0,0,1.31,0l4-2.34C165.9,128.86,165.92,128.52,165.58,128.32Z" style="fill:#24126a"/><path d="M172.21,132.15l-4.3-2.48a1.42,1.42,0,0,0-1.3,0l-4,2.34c-.38.22-.4.56-.06.75l4.3,2.48a1.42,1.42,0,0,0,1.3,0l4-2.34C172.53,132.69,172.55,132.35,172.21,132.15Z" style="fill:#24126a"/><path d="M178.84,136l-4.29-2.48a1.44,1.44,0,0,0-1.31,0l-4,2.34c-.38.21-.4.55-.06.75l4.3,2.48a1.42,1.42,0,0,0,1.3,0l4-2.34C179.16,136.52,179.18,136.18,178.84,136Z" style="fill:#24126a"/><path d="M185.47,139.81l-4.29-2.48a1.44,1.44,0,0,0-1.31,0l-4,2.34c-.38.22-.4.56-.06.76l4.3,2.48a1.42,1.42,0,0,0,1.3,0l4-2.34C185.79,140.34,185.81,140,185.47,139.81Z" style="fill:#24126a"/><path d="M192.1,143.63l-4.29-2.47a1.44,1.44,0,0,0-1.31,0l-4,2.34c-.38.22-.4.56-.06.76l4.3,2.48a1.42,1.42,0,0,0,1.3,0l4-2.34C192.42,144.17,192.44,143.83,192.1,143.63Z" style="fill:#24126a"/><path d="M198.73,147.46,194.44,145a1.44,1.44,0,0,0-1.31,0l-4,2.34c-.38.22-.4.56-.06.76l4.3,2.48a1.42,1.42,0,0,0,1.3,0l4-2.34C199.05,148,199.07,147.66,198.73,147.46Z" style="fill:#24126a"/><path d="M205.36,151.29l-4.29-2.48a1.44,1.44,0,0,0-1.31,0l-4,2.34c-.38.22-.4.56-.06.76l4.3,2.47a1.42,1.42,0,0,0,1.3,0l4-2.34C205.68,151.83,205.71,151.49,205.36,151.29Z" style="fill:#24126a"/><path d="M212,155.12l-4.29-2.48a1.44,1.44,0,0,0-1.31,0l-4,2.34c-.38.22-.4.55-.06.75l4.3,2.48a1.42,1.42,0,0,0,1.3,0l4-2.34C212.31,155.66,212.34,155.32,212,155.12Z" style="fill:#24126a"/><path d="M158.63,103.14,146,95.83a1.42,1.42,0,0,0-1.3,0l-4,2.34c-.37.22-.4.56,0,.76l12.64,7.3a1.42,1.42,0,0,0,1.3,0l4-2.34C159,103.67,159,103.33,158.63,103.14Z" style="fill:#24126a"/><path d="M240.09,150.16l-12.64-7.3a1.51,1.51,0,0,0-1.31,0l-4,2.34c-.38.22-.4.56-.06.76l12.65,7.3a1.42,1.42,0,0,0,1.3,0l4-2.34C240.41,150.7,240.44,150.36,240.09,150.16Z" style="fill:#24126a"/><path d="M227.79,135.06l-4.29-2.48a1.42,1.42,0,0,0-1.3,0l-4.77,2.79c-.38.22-.4.56-.06.76l4.3,2.48a1.48,1.48,0,0,0,1.3,0l4.77-2.79C228.11,135.59,228.14,135.25,227.79,135.06Z" style="fill:#24126a"/><path d="M179.64,107.25l-6.86-4a1.44,1.44,0,0,0-1.31,0L166.7,106c-.37.22-.4.56,0,.76l6.86,4a1.51,1.51,0,0,0,1.31,0l4.77-2.79C180,107.79,180,107.45,179.64,107.25Z" style="fill:#24126a"/><path d="M221.41,131.37l-6.87-4a1.42,1.42,0,0,0-1.3,0l-4.78,2.79c-.37.22-.39.55-.05.75l6.87,4a1.42,1.42,0,0,0,1.3,0l4.77-2.79C221.73,131.9,221.75,131.57,221.41,131.37Z" style="fill:#24126a"/><path d="M189.21,112.78l-6.87-4a1.42,1.42,0,0,0-1.3,0l-4.77,2.79c-.38.22-.4.56-.06.75l6.87,4a1.42,1.42,0,0,0,1.3,0l4.78-2.78C189.53,113.32,189.55,113,189.21,112.78Z" style="fill:#24126a"/><path d="M176.26,112.42l29.85,17.24a1.44,1.44,0,0,0,1.31,0l4.86-2.85c.35-.2.33-.54,0-.75l-29.85-17.24Z" style="fill:#24126a"/><path d="M240,145.67l4.78,2.76a1.19,1.19,0,0,0,1.07,0l2-1.14c.31-.18.33-.46,0-.62L243,143.9a1.25,1.25,0,0,0-1.07,0L240,145C239.74,145.22,239.72,145.5,240,145.67Z" style="fill:#24126a"/><path d="M233.32,141.81l4.78,2.76a1.19,1.19,0,0,0,1.07,0l2-1.14c.31-.18.33-.46,0-.62l-4.78-2.8a1.19,1.19,0,0,0-1.07,0l-1.95,1.15C233.06,141.36,233,141.64,233.32,141.81Z" style="fill:#24126a"/><path d="M226.69,138l4.78,2.76a1.19,1.19,0,0,0,1.07,0l2-1.14c.31-.18.33-.46,0-.62l-4.78-2.76a1.19,1.19,0,0,0-1.07,0l-1.95,1.14C226.43,137.54,226.41,137.81,226.69,138Z" style="fill:#24126a"/><path d="M229.87,143.82l4.79,2.76a1.17,1.17,0,0,0,1.06,0l2-1.14c.3-.18.32-.46,0-.62L232.94,142a1.19,1.19,0,0,0-1.07,0l-2,1.14C229.61,143.38,229.59,143.66,229.87,143.82Z" style="fill:#24126a"/></g></g></g><g style="opacity:0.800000011920929"><path d="M63.73,147.62l-4.25-2.45c-.34-.2-.3-.54.1-.77l5-2.9a1.45,1.45,0,0,1,1.33-.05l4.25,2.45c.34.2.3.54-.1.77l-5,2.9A1.48,1.48,0,0,1,63.73,147.62Z" style="fill:#24126a"/><path d="M70.3,151.41,66.05,149c-.34-.2-.3-.54.09-.77l5-2.9a1.52,1.52,0,0,1,1.33-.05l4.26,2.45c.34.2.3.54-.1.77l-5,2.9A1.48,1.48,0,0,1,70.3,151.41Z" style="fill:#24126a"/><path d="M76.87,155.21l-4.25-2.46c-.35-.2-.3-.54.09-.77l5-2.9a1.48,1.48,0,0,1,1.33,0l4.25,2.45c.35.2.3.55-.09.77l-5,2.9A1.48,1.48,0,0,1,76.87,155.21Z" style="fill:#24126a"/><path d="M86,152.07l-4.25-2.45c-.34-.2-.3-.54.09-.77L86,146.42a1.48,1.48,0,0,1,1.33-.06l4.25,2.46c.34.2.3.54-.1.77L87.28,152A1.44,1.44,0,0,1,86,152.07Z" style="fill:#24126a"/><path d="M92.52,155.87l-4.26-2.46c-.34-.2-.29-.54.1-.77l4.21-2.43a1.48,1.48,0,0,1,1.33-.06l4.26,2.46c.34.2.3.54-.1.77l-4.21,2.43A1.48,1.48,0,0,1,92.52,155.87Z" style="fill:#24126a"/><path d="M99.08,159.66l-4.25-2.46c-.34-.19-.3-.54.1-.77L99.14,154a1.45,1.45,0,0,1,1.33,0l4.25,2.45c.34.2.3.54-.09.77l-4.22,2.43A1.52,1.52,0,0,1,99.08,159.66Z" style="fill:#24126a"/><path d="M105.65,163.45,101.4,161c-.34-.19-.3-.54.09-.77l4.22-2.43a1.45,1.45,0,0,1,1.33-.05l4.25,2.45c.34.2.3.54-.1.77L107,163.39A1.46,1.46,0,0,1,105.65,163.45Z" style="fill:#24126a"/><path d="M112.22,167.24,108,164.78c-.34-.19-.3-.54.1-.76l4.21-2.44a1.48,1.48,0,0,1,1.33,0L117.9,164c.34.2.29.54-.1.77l-4.21,2.43A1.45,1.45,0,0,1,112.22,167.24Z" style="fill:#24126a"/><path d="M118.78,171l-4.25-2.45c-.34-.2-.3-.55.1-.77l4.21-2.44a1.52,1.52,0,0,1,1.33,0l4.25,2.45c.34.2.3.55-.09.77L120.11,171A1.48,1.48,0,0,1,118.78,171Z" style="fill:#24126a"/><path d="M125.35,174.82l-4.25-2.45c-.34-.2-.3-.54.09-.77l4.22-2.43a1.45,1.45,0,0,1,1.33-.06l4.25,2.46c.34.19.3.54-.1.76l-4.21,2.44A1.52,1.52,0,0,1,125.35,174.82Z" style="fill:#24126a"/><path d="M131.92,178.61l-4.26-2.45c-.34-.2-.3-.54.1-.77L132,173a1.45,1.45,0,0,1,1.33-.06l4.26,2.46c.34.19.29.54-.1.77l-4.21,2.43A1.48,1.48,0,0,1,131.92,178.61Z" style="fill:#24126a"/><path d="M138.48,182.4,134.23,180c-.34-.2-.3-.54.1-.77l4.21-2.43a1.48,1.48,0,0,1,1.33-.06l4.25,2.46c.34.2.3.54-.09.77l-4.22,2.43A1.45,1.45,0,0,1,138.48,182.4Z" style="fill:#24126a"/><path d="M145.05,186.2l-4.25-2.46c-.34-.2-.3-.54.09-.77l4.22-2.43a1.48,1.48,0,0,1,1.33-.06l4.25,2.46c.34.2.3.54-.1.77l-4.21,2.43A1.48,1.48,0,0,1,145.05,186.2Z" style="fill:#24126a"/><path d="M95.62,150.28l-4.25-2.46c-.34-.19-.3-.54.1-.76l4.21-2.44a1.52,1.52,0,0,1,1.33-.05l4.26,2.45c.34.2.29.54-.1.77L97,150.22A1.47,1.47,0,0,1,95.62,150.28Z" style="fill:#24126a"/><path d="M89,146.43,84.71,144c-.34-.2-.3-.54.09-.77l4.2-2.46a1.45,1.45,0,0,1,1.33-.06l4.25,2.46c.34.19.3.54-.09.76l-4.22,2.44A1.49,1.49,0,0,1,89,146.43Z" style="fill:#24126a"/><path d="M82.28,142.58l-9.15-5.29c-.34-.2-.3-.54.09-.77l4.22-2.43a1.48,1.48,0,0,1,1.33-.06l9.16,5.29c.34.2.29.54-.1.77l-4.21,2.43A1.47,1.47,0,0,1,82.28,142.58Z" style="fill:#24126a"/><path d="M87,137.89l-7.43-4.29c-.34-.2-.3-.54.09-.77l4.22-2.43a1.48,1.48,0,0,1,1.33-.06l7.43,4.29c.34.2.3.55-.09.77l-4.22,2.44A1.52,1.52,0,0,1,87,137.89Z" style="fill:#24126a"/><path d="M102.19,154.07l-4.25-2.45c-.34-.2-.3-.55.09-.77l4.22-2.44a1.52,1.52,0,0,1,1.33,0l4.25,2.45c.34.2.3.55-.09.77L103.52,154A1.48,1.48,0,0,1,102.19,154.07Z" style="fill:#24126a"/><path d="M108.76,157.86l-4.25-2.45c-.35-.2-.3-.54.09-.77l4.21-2.43a1.47,1.47,0,0,1,1.34-.06l4.25,2.46c.34.19.3.54-.1.76l-4.21,2.44A1.52,1.52,0,0,1,108.76,157.86Z" style="fill:#24126a"/><path d="M115.32,161.65l-4.25-2.45c-.34-.2-.3-.54.1-.77l4.21-2.43a1.45,1.45,0,0,1,1.33-.06L121,158.4c.34.19.29.54-.1.77l-4.21,2.43A1.47,1.47,0,0,1,115.32,161.65Z" style="fill:#24126a"/><path d="M121.89,165.44,117.64,163c-.34-.2-.3-.54.09-.77l4.27-2.43a1.48,1.48,0,0,1,1.33-.06l4.25,2.46c.34.2.3.54-.09.77l-4.22,2.43A1.47,1.47,0,0,1,121.89,165.44Z" style="fill:#24126a"/><path d="M128.46,169.24l-4.25-2.46c-.35-.2-.3-.54.09-.77l4.21-2.43a1.51,1.51,0,0,1,1.34-.06L134.1,166c.34.2.3.54-.1.77l-4.21,2.43A1.48,1.48,0,0,1,128.46,169.24Z" style="fill:#24126a"/><path d="M135,173l-4.25-2.46c-.34-.19-.3-.54.1-.77l4.21-2.43a1.45,1.45,0,0,1,1.33,0l4.26,2.45c.34.2.29.54-.1.77L136.36,173A1.48,1.48,0,0,1,135,173Z" style="fill:#24126a"/><path d="M141.59,176.82l-4.25-2.46c-.34-.19-.3-.54.09-.77l4.22-2.43a1.45,1.45,0,0,1,1.33,0l4.25,2.45c.34.2.3.54-.09.77l-4.22,2.43A1.45,1.45,0,0,1,141.59,176.82Z" style="fill:#24126a"/><path d="M148.16,180.61l-4.25-2.46c-.35-.19-.3-.54.09-.76l4.21-2.44a1.54,1.54,0,0,1,1.34,0l4.25,2.45c.34.2.3.54-.1.77l-4.21,2.43A1.45,1.45,0,0,1,148.16,180.61Z" style="fill:#24126a"/><path d="M154.72,184.4,150.47,182c-.34-.2-.3-.55.1-.77l4.21-2.44a1.48,1.48,0,0,1,1.33,0l4.26,2.45c.34.2.29.55-.1.77l-4.21,2.44A1.5,1.5,0,0,1,154.72,184.4Z" style="fill:#24126a"/><path d="M166.4,191.14l-9.28-5.36c-.34-.19-.3-.54.1-.76l4.21-2.44a1.48,1.48,0,0,1,1.33,0l9.28,5.35c.34.2.3.55-.1.77l-4.21,2.44A1.48,1.48,0,0,1,166.4,191.14Z" style="fill:#24126a"/><path d="M179.18,183.76l-7.83-4.52c-.34-.2-.3-.54.1-.77l4.21-2.43a1.5,1.5,0,0,1,1.34,0l7.83,4.52c.34.2.3.54-.09.77l-4.22,2.43A1.44,1.44,0,0,1,179.18,183.76Z" style="fill:#24126a"/><path d="M113.69,153.33l-4.25-2.46c-.34-.19-.3-.54.09-.76l4.22-2.44a1.48,1.48,0,0,1,1.33,0l4.25,2.45c.34.2.3.54-.09.77L115,153.27A1.44,1.44,0,0,1,113.69,153.33Z" style="fill:#24126a"/><path d="M107,149.44,102.71,147c-.34-.2-.3-.54.09-.77l4.2-2.43a1.48,1.48,0,0,1,1.33-.06l4.25,2.46c.34.19.3.54-.09.77l-4.22,2.43A1.49,1.49,0,0,1,107,149.44Z" style="fill:#24126a"/><path d="M100.23,145.56,96,143.1c-.34-.19-.3-.54.09-.77l4.22-2.43a1.48,1.48,0,0,1,1.33,0l4.25,2.45c.34.2.3.54-.09.77l-4.22,2.43A1.46,1.46,0,0,1,100.23,145.56Z" style="fill:#24126a"/><path d="M93.5,141.67l-4.25-2.45c-.34-.2-.3-.54.09-.77L93.56,136a1.45,1.45,0,0,1,1.33-.06l4.25,2.46c.34.19.3.54-.09.77l-4.22,2.43A1.45,1.45,0,0,1,93.5,141.67Z" style="fill:#24126a"/><path d="M120.26,157.12,116,154.67c-.35-.2-.3-.55.09-.77l4.21-2.44a1.5,1.5,0,0,1,1.34,0l4.25,2.45c.34.2.3.55-.1.77l-4.21,2.44A1.46,1.46,0,0,1,120.26,157.12Z" style="fill:#24126a"/><path d="M126.82,160.91l-4.25-2.45c-.34-.2-.3-.54.1-.77l4.21-2.43a1.45,1.45,0,0,1,1.33-.06l4.25,2.46c.35.19.3.54-.09.76l-4.21,2.44A1.54,1.54,0,0,1,126.82,160.91Z" style="fill:#24126a"/><path d="M133.39,164.7l-4.25-2.45c-.34-.2-.3-.54.09-.77l4.22-2.43a1.45,1.45,0,0,1,1.33-.06l4.25,2.46c.34.19.3.54-.09.77l-4.22,2.43A1.45,1.45,0,0,1,133.39,164.7Z" style="fill:#24126a"/><path d="M140,168.49,135.71,166c-.35-.2-.3-.54.09-.77l4.2-2.43a1.51,1.51,0,0,1,1.34-.06l4.25,2.46c.34.19.3.54-.1.77l-4.21,2.43A1.41,1.41,0,0,1,140,168.49Z" style="fill:#24126a"/><path d="M146.52,172.29l-4.25-2.46c-.34-.2-.3-.54.1-.77l4.21-2.43a1.48,1.48,0,0,1,1.33-.06l4.25,2.46c.35.2.3.54-.09.77l-4.21,2.43A1.51,1.51,0,0,1,146.52,172.29Z" style="fill:#24126a"/><path d="M153.09,176.08l-4.25-2.46c-.34-.2-.3-.54.09-.77l4.22-2.43a1.48,1.48,0,0,1,1.33,0l4.25,2.45c.34.2.3.54-.09.77L154.42,176A1.49,1.49,0,0,1,153.09,176.08Z" style="fill:#24126a"/><path d="M159.66,179.87l-4.26-2.46c-.34-.19-.29-.54.1-.77l4.21-2.43a1.5,1.5,0,0,1,1.34,0l4.25,2.45c.34.2.3.54-.1.77l-4.2,2.38A1.44,1.44,0,0,1,159.66,179.87Z" style="fill:#24126a"/><path d="M166.22,183.66,162,181.2c-.34-.19-.3-.54.1-.76l4.21-2.44a1.52,1.52,0,0,1,1.33-.05l4.25,2.45c.35.2.3.54-.09.77l-4.21,2.43A1.48,1.48,0,0,1,166.22,183.66Z" style="fill:#24126a"/><path d="M172.79,187.45,168.54,185c-.34-.2-.3-.55.09-.77l4.22-2.44a1.55,1.55,0,0,1,1.33,0l4.25,2.45c.34.2.3.55-.09.77l-4.22,2.44A1.48,1.48,0,0,1,172.79,187.45Z" style="fill:#24126a"/><path d="M110.23,144,106,141.5c-.34-.2-.3-.54.1-.77l4.21-2.43a1.45,1.45,0,0,1,1.33-.06l4.25,2.46c.35.19.3.54-.09.76l-4.22,2.44A1.5,1.5,0,0,1,110.23,144Z" style="fill:#24126a"/><path d="M103.7,140.18l-4.25-2.46c-.34-.19-.3-.54.09-.76l4.22-2.44a1.48,1.48,0,0,1,1.33,0l4.25,2.45c.34.2.3.54-.1.77L105,140.12A1.48,1.48,0,0,1,103.7,140.18Z" style="fill:#24126a"/><path d="M97.17,136.41,92.91,134c-.34-.19-.3-.54.1-.77l4.21-2.43a1.45,1.45,0,0,1,1.33-.05l4.26,2.45c.34.2.29.54-.1.77l-4.21,2.43A1.48,1.48,0,0,1,97.17,136.41Z" style="fill:#24126a"/><path d="M90.63,132.63l-4.25-2.45c-.34-.2-.3-.54.09-.77l4.22-2.4A1.48,1.48,0,0,1,92,127l4.25,2.46c.34.2.3.54-.09.77L92,132.58A1.48,1.48,0,0,1,90.63,132.63Z" style="fill:#24126a"/><path d="M97.35,128.76,93.1,126.3c-.34-.2-.3-.54.09-.77l1.4-.8a1.48,1.48,0,0,1,1.33-.06l4.25,2.46c.34.19.3.54-.1.77l-1.39.8A1.48,1.48,0,0,1,97.35,128.76Z" style="fill:#24126a"/><path d="M105.88,133.68l-4.26-2.46c-.34-.19-.29-.54.1-.77l1.39-.8a1.5,1.5,0,0,1,1.34,0L108.7,132c.34.2.3.54-.1.77l-1.39.8A1.46,1.46,0,0,1,105.88,133.68Z" style="fill:#24126a"/><path d="M112.38,137.44,108.13,135c-.34-.2-.3-.54.1-.77l1.39-.8a1.45,1.45,0,0,1,1.33-.06l4.25,2.46c.35.19.3.54-.09.77l-1.39.8A1.5,1.5,0,0,1,112.38,137.44Z" style="fill:#24126a"/><path d="M118.89,141.19l-4.25-2.45c-.34-.2-.3-.54.09-.77l1.4-.81a1.52,1.52,0,0,1,1.33,0l4.25,2.45c.34.2.3.55-.09.77l-1.4.81A1.52,1.52,0,0,1,118.89,141.19Z" style="fill:#24126a"/><path d="M125.4,145l-4.26-2.46c-.34-.19-.29-.54.1-.77l1.39-.8a1.5,1.5,0,0,1,1.34,0l4.25,2.45c.34.2.3.54-.1.77l-1.39.8A1.45,1.45,0,0,1,125.4,145Z" style="fill:#24126a"/><path d="M161.72,165.92l-4.25-2.45c-.34-.2-.3-.54.1-.77l1.39-.81a1.48,1.48,0,0,1,1.33,0l4.25,2.45c.34.2.3.54-.09.77l-1.39.81A1.5,1.5,0,0,1,161.72,165.92Z" style="fill:#24126a"/><path d="M168.23,169.68,164,167.22c-.34-.19-.3-.54.09-.77l1.4-.8a1.48,1.48,0,0,1,1.33-.06l4.25,2.46c.34.2.3.54-.1.77l-1.39.8A1.46,1.46,0,0,1,168.23,169.68Z" style="fill:#24126a"/><path d="M174.74,173.43,170.48,171c-.34-.2-.29-.54.1-.77l1.39-.8a1.45,1.45,0,0,1,1.33-.06l4.26,2.46c.34.19.3.54-.1.77l-1.39.8A1.45,1.45,0,0,1,174.74,173.43Z" style="fill:#24126a"/><path d="M181.24,177.19,177,174.74c-.34-.2-.3-.54.1-.77l1.39-.81a1.52,1.52,0,0,1,1.33,0l4.25,2.45c.34.2.3.54-.09.77l-1.39.81A1.5,1.5,0,0,1,181.24,177.19Z" style="fill:#24126a"/><path d="M116.8,147.74l-4.25-2.45c-.34-.2-.3-.54.09-.77l4.22-2.43a1.45,1.45,0,0,1,1.33-.06l4.25,2.46c.34.19.3.54-.1.77l-4.21,2.43A1.45,1.45,0,0,1,116.8,147.74Z" style="fill:#24126a"/><path d="M123.37,151.53l-4.26-2.45c-.34-.2-.29-.54.1-.77l4.21-2.43a1.48,1.48,0,0,1,1.33-.06l4.26,2.46c.34.19.3.54-.1.77l-4.21,2.43A1.45,1.45,0,0,1,123.37,151.53Z" style="fill:#24126a"/><path d="M129.93,155.33l-4.25-2.46c-.34-.2-.3-.54.1-.77l4.21-2.43a1.48,1.48,0,0,1,1.33-.06l4.25,2.46c.35.2.3.54-.09.77l-4.22,2.43A1.48,1.48,0,0,1,129.93,155.33Z" style="fill:#24126a"/><path d="M136.5,159.12l-4.25-2.46c-.34-.2-.3-.54.09-.77l4.22-2.43a1.48,1.48,0,0,1,1.33,0l4.25,2.45c.34.2.3.54-.1.77l-4.21,2.43A1.48,1.48,0,0,1,136.5,159.12Z" style="fill:#24126a"/><path d="M143.07,162.91l-4.26-2.46c-.34-.19-.29-.54.1-.77l4.21-2.43a1.45,1.45,0,0,1,1.33-.05l4.26,2.45c.34.2.3.54-.1.77l-4.21,2.43A1.45,1.45,0,0,1,143.07,162.91Z" style="fill:#24126a"/><path d="M149.63,166.7l-4.25-2.46c-.34-.19-.3-.54.1-.76l4.21-2.44a1.51,1.51,0,0,1,1.31,0l4.25,2.45c.35.2.3.54-.09.77L151,166.64A1.45,1.45,0,0,1,149.63,166.7Z" style="fill:#24126a"/><path d="M156.2,170.49,152,168c-.34-.2-.3-.55.09-.77l4.22-2.44a1.48,1.48,0,0,1,1.33,0l4.25,2.45c.34.2.3.55-.1.77l-4.21,2.44A1.47,1.47,0,0,1,156.2,170.49Z" style="fill:#24126a"/><path d="M162.77,174.28l-4.26-2.45c-.34-.2-.29-.54.1-.77l4.21-2.43a1.45,1.45,0,0,1,1.33-.06l4.26,2.46c.34.19.3.54-.1.76l-4.21,2.44A1.52,1.52,0,0,1,162.77,174.28Z" style="fill:#24126a"/><path d="M169.33,178.07l-4.25-2.45c-.34-.2-.3-.54.1-.77l4.21-2.43a1.45,1.45,0,0,1,1.33-.06l4.25,2.46c.34.19.3.54-.09.77L170.66,178A1.45,1.45,0,0,1,169.33,178.07Z" style="fill:#24126a"/><path d="M79.26,148.21,66.73,141c-.34-.2-.29-.54.1-.77L71,137.78a1.51,1.51,0,0,1,1.34-.06L84.86,145c.34.2.3.55-.1.77l-4.21,2.44A1.5,1.5,0,0,1,79.26,148.21Z" style="fill:#24126a"/><path d="M159.93,194.79l-12.52-7.23c-.34-.2-.3-.54.09-.77l4.22-2.43a1.45,1.45,0,0,1,1.33-.06l12.52,7.23c.34.2.3.54-.1.77l-4.21,2.43A1.48,1.48,0,0,1,159.93,194.79Z" style="fill:#24126a"/><path d="M133.67,188l-4.25-2.45c-.34-.2-.3-.55.09-.77l5-2.9a1.48,1.48,0,0,1,1.33-.06l4.26,2.46c.34.2.29.54-.1.77l-5,2.9A1.52,1.52,0,0,1,133.67,188Z" style="fill:#24126a"/><path d="M86,160.47l-6.8-3.93c-.34-.2-.3-.54.1-.77l5-2.89a1.45,1.45,0,0,1,1.33-.06l6.8,3.93c.34.19.3.54-.1.77l-5,2.89A1.45,1.45,0,0,1,86,160.47Z" style="fill:#24126a"/><path d="M127.34,184.35l-6.8-3.93c-.34-.2-.3-.54.1-.77l5-2.9a1.52,1.52,0,0,1,1.33-.05l6.8,3.93c.34.19.3.54-.1.76l-5,2.9A1.48,1.48,0,0,1,127.34,184.35Z" style="fill:#24126a"/><path d="M95.46,165.94,88.66,162c-.35-.2-.3-.54.09-.77l5-2.89a1.45,1.45,0,0,1,1.33-.06l6.8,3.93c.34.19.3.54-.09.77l-5,2.89A1.45,1.45,0,0,1,95.46,165.94Z" style="fill:#24126a"/><path d="M95.15,158.32l29.56,17.07c.37.21.37.55,0,.76l-5.11,3a1.48,1.48,0,0,1-1.33,0L88.7,162Z" style="fill:#24126a"/><path d="M152,194.87l4.74,2.74c.28.16.24.44-.08.63l-2,1.18a1.22,1.22,0,0,1-1.1.05l-4.73-2.73c-.28-.17-.25-.45.08-.64l2-1.18A1.2,1.2,0,0,1,152,194.87Z" style="fill:#24126a"/><path d="M145.4,191l4.74,2.74c.28.16.24.44-.08.63L148,195.6a1.25,1.25,0,0,1-1.1,0l-4.73-2.74c-.28-.16-.25-.44.08-.63L144.3,191A1.19,1.19,0,0,1,145.4,191Z" style="fill:#24126a"/><path d="M138.83,187.26l4.74,2.73c.28.17.25.45-.08.64l-2.05,1.18a1.23,1.23,0,0,1-1.09,0l-4.74-2.74c-.28-.16-.24-.44.08-.63l2.05-1.18A1.23,1.23,0,0,1,138.83,187.26Z" style="fill:#24126a"/><path d="M149,189l4.73,2.73c.28.16.25.45-.08.63l-2.05,1.19a1.23,1.23,0,0,1-1.09,0l-4.74-2.73c-.28-.16-.24-.44.08-.63L147.9,189A1.25,1.25,0,0,1,149,189Z" style="fill:#24126a"/></g><path d="M216,86.79a2.07,2.07,0,0,1-1-.29,2.87,2.87,0,0,1-1.39-2.92,1.47,1.47,0,0,1,.83-1.06,1.77,1.77,0,0,1,1.58.16,2.89,2.89,0,0,1,1.39,2.93,1.44,1.44,0,0,1-.84,1.06A1.39,1.39,0,0,1,216,86.79Zm-1-3.94a1,1,0,0,0-.41.09,1,1,0,0,0-.57.74,2.44,2.44,0,0,0,1.18,2.43,1.29,1.29,0,0,0,1.16.14,1,1,0,0,0,.57-.74,2.42,2.42,0,0,0-1.17-2.43,1.57,1.57,0,0,0-.7-.23Z" style="fill:#42e8e0"/><path d="M221.43,89.91a2,2,0,0,1-1-.28A2.9,2.9,0,0,1,219,86.7a1.51,1.51,0,0,1,.84-1.06,1.75,1.75,0,0,1,1.57.17,2.89,2.89,0,0,1,1.39,2.93A1.47,1.47,0,0,1,222,89.8,1.41,1.41,0,0,1,221.43,89.91Zm-1-3.93a1.1,1.1,0,0,0-.4.08,1,1,0,0,0-.57.74,2.42,2.42,0,0,0,1.17,2.44,1.38,1.38,0,0,0,1.17.14,1,1,0,0,0,.57-.74,2.43,2.43,0,0,0-1.18-2.44,1.52,1.52,0,0,0-.72-.19Z" style="fill:#42e8e0"/><path d="M228,91.81a1.29,1.29,0,0,1-1.52,1,1.27,1.27,0,0,1-.55-.26,2.66,2.66,0,0,1-1.28-2.68,1.31,1.31,0,0,1,1.55-1,1.39,1.39,0,0,1,.52.25A2.66,2.66,0,0,1,228,91.81Z" style="fill:#42e8e0"/><polygon points="124.23 32.07 121.33 30.4 121.56 29.06 124.45 30.73 124.23 32.07" style="fill:#42e8e0"/><polygon points="128.44 34.5 125.54 32.83 125.77 31.49 128.66 33.16 128.44 34.5" style="fill:#42e8e0"/><polygon points="120.06 29.67 113.71 26 113.94 24.66 120.29 28.33 120.06 29.67" style="fill:#42e8e0"/><polygon points="120.86 54.93 116.02 52.13 116.2 51.01 121.05 53.81 120.86 54.93" style="fill:#42e8e0"/><polygon points="125 57.32 122.57 55.92 122.76 54.8 125.19 56.2 125 57.32" style="fill:#42e8e0"/><polygon points="121.85 58.38 119.79 57.19 119.97 56.07 122.04 57.26 121.85 58.38" style="fill:#42e8e0"/><polygon points="125.31 60.38 122.89 58.98 123.07 57.86 125.5 59.26 125.31 60.38" style="fill:#42e8e0"/><polygon points="128.87 65.32 119.35 59.82 119.53 58.7 129.06 64.2 128.87 65.32" style="fill:#42e8e0"/><polygon points="120.61 87.31 111.09 81.81 111.28 80.69 120.8 86.19 120.61 87.31" style="fill:#42e8e0"/><polygon points="124.28 89.42 121.85 88.02 122.04 86.9 124.46 88.3 124.28 89.42" style="fill:#42e8e0"/><polygon points="120.97 63.64 118.91 62.44 119.09 61.32 121.16 62.52 120.97 63.64" style="fill:#42e8e0"/><polygon points="124.43 65.63 122.01 64.23 122.19 63.11 124.62 64.51 124.43 65.63" style="fill:#42e8e0"/><polygon points="123.7 68.09 118.47 65.07 118.65 63.95 123.89 66.97 123.7 68.09" style="fill:#42e8e0"/><polygon points="127.2 70.12 124.78 68.72 124.97 67.6 127.39 69 127.2 70.12" style="fill:#42e8e0"/><polygon points="130.73 72.15 128.3 70.75 128.49 69.63 130.91 71.03 130.73 72.15" style="fill:#42e8e0"/><polygon points="136.41 75.43 131.83 72.79 132.01 71.67 136.6 74.31 136.41 75.43" style="fill:#42e8e0"/><polygon points="132.78 79.1 130.36 77.7 130.55 76.58 132.97 77.98 132.78 79.1" style="fill:#42e8e0"/><polygon points="138.47 82.38 133.88 79.73 134.07 78.61 138.66 81.26 138.47 82.38" style="fill:#42e8e0"/><polygon points="120.01 71.72 117.58 70.32 117.77 69.2 120.19 70.6 120.01 71.72" style="fill:#42e8e0"/><polygon points="123.53 73.76 121.11 72.36 121.29 71.24 123.72 72.64 123.53 73.76" style="fill:#42e8e0"/><polygon points="129.22 77.04 124.63 74.39 124.82 73.27 129.4 75.92 129.22 77.04" style="fill:#42e8e0"/><polygon points="136.66 78.46 134.24 77.06 134.43 75.94 136.85 77.34 136.66 78.46" style="fill:#42e8e0"/><polygon points="140.19 80.49 137.76 79.09 137.95 77.97 140.37 79.37 140.19 80.49" style="fill:#42e8e0"/><polygon points="145.87 83.78 141.29 81.13 141.47 80.01 146.06 82.65 145.87 83.78" style="fill:#42e8e0"/><polygon points="128.07 91.61 125.64 90.21 125.83 89.09 128.25 90.49 128.07 91.61" style="fill:#42e8e0"/><polygon points="133.75 94.89 129.17 92.24 129.35 91.12 133.94 93.77 133.75 94.89" style="fill:#42e8e0"/><polygon points="119.13 76.98 116.7 75.58 116.89 74.46 119.31 75.86 119.13 76.98" style="fill:#42e8e0"/><polygon points="124.81 80.26 120.22 77.61 120.41 76.49 125 79.14 124.81 80.26" style="fill:#42e8e0"/><polygon points="130.71 96.01 128.28 94.62 128.47 93.49 130.9 94.89 130.71 96.01" style="fill:#42e8e0"/><polygon points="136.39 99.3 131.81 96.65 131.99 95.53 136.58 98.18 136.39 99.3" style="fill:#42e8e0"/><polygon points="136.11 69.5 133.69 68.1 133.88 66.98 136.3 68.38 136.11 69.5" style="fill:#42e8e0"/><polygon points="132.45 67.38 130.03 65.98 130.21 64.86 132.64 66.26 132.45 67.38" style="fill:#42e8e0"/><polygon points="141.8 72.78 137.21 70.13 137.4 69.01 141.99 71.66 141.8 72.78" style="fill:#42e8e0"/><polygon points="120.21 68.96 118.02 67.7 118.21 66.58 120.4 67.84 120.21 68.96" style="fill:#42e8e0"/><polygon points="126.69 72.7 121.38 69.64 121.57 68.51 126.88 71.58 126.69 72.7" style="fill:#42e8e0"/><polygon points="133.18 76.45 127.86 73.38 128.05 72.26 133.37 75.33 133.18 76.45" style="fill:#42e8e0"/><polygon points="145.17 74.72 142.98 73.46 143.17 72.34 145.35 73.6 145.17 74.72" style="fill:#42e8e0"/><polygon points="151.65 78.47 146.34 75.4 146.52 74.28 151.84 77.35 151.65 78.47" style="fill:#42e8e0"/><polygon points="158.13 82.21 152.82 79.14 153.01 78.02 158.32 81.09 158.13 82.21" style="fill:#42e8e0"/><polygon points="122.5 76.05 117.19 72.98 117.38 71.86 122.69 74.93 122.5 76.05" style="fill:#42e8e0"/><polygon points="125.31 77.66 123.67 76.72 123.86 75.6 125.49 76.54 125.31 77.66" style="fill:#42e8e0"/><polygon points="128.11 79.29 126.48 78.34 126.67 77.22 128.3 78.17 128.11 79.29" style="fill:#42e8e0"/><polygon points="133.3 82.28 129.29 79.96 129.48 78.84 133.49 81.16 133.3 82.28" style="fill:#42e8e0"/><polygon points="139.12 77 137.49 76.06 137.68 74.93 139.31 75.88 139.12 77" style="fill:#42e8e0"/><polygon points="144.31 79.99 140.3 77.68 140.49 76.56 144.5 78.87 144.31 79.99" style="fill:#42e8e0"/><polygon points="145.4 80.62 141.39 78.31 141.58 77.19 145.59 79.5 145.4 80.62" style="fill:#42e8e0"/><polygon points="124.03 95.04 118.79 92.02 118.98 90.9 124.22 93.92 124.03 95.04" style="fill:#42e8e0"/><polygon points="127.53 97.06 125.11 95.66 125.3 94.54 127.72 95.94 127.53 97.06" style="fill:#42e8e0"/><polygon points="131.05 99.1 128.63 97.7 128.82 96.58 131.24 97.98 131.05 99.1" style="fill:#42e8e0"/><polygon points="136.74 102.38 132.15 99.73 132.34 98.61 136.93 101.26 136.74 102.38" style="fill:#42e8e0"/><polygon points="140.38 104.48 137.95 103.08 138.14 101.96 140.56 103.36 140.38 104.48" style="fill:#42e8e0"/><polygon points="146.06 107.76 141.47 105.11 141.66 103.99 146.25 106.64 146.06 107.76" style="fill:#42e8e0"/><polygon points="128.62 103.45 126.2 102.05 126.39 100.93 128.81 102.33 128.62 103.45" style="fill:#42e8e0"/><polygon points="134.31 106.74 129.72 104.09 129.91 102.97 134.49 105.62 134.31 106.74" style="fill:#42e8e0"/><polygon points="115.96 96.15 113.54 94.75 113.73 93.63 116.15 95.03 115.96 96.15" style="fill:#42e8e0"/><polygon points="119.49 98.18 117.06 96.78 117.25 95.66 119.67 97.06 119.49 98.18" style="fill:#42e8e0"/><polygon points="125.17 101.46 120.59 98.81 120.77 97.69 125.36 100.34 125.17 101.46" style="fill:#42e8e0"/><polygon points="120.54 95.9 118.35 94.64 118.54 93.52 120.72 94.79 120.54 95.9" style="fill:#42e8e0"/><polygon points="127.02 99.65 121.71 96.58 121.89 95.46 127.21 98.53 127.02 99.65" style="fill:#42e8e0"/><polygon points="133.5 103.39 128.19 100.32 128.38 99.2 133.69 102.27 133.5 103.39" style="fill:#42e8e0"/><polygon points="114.17 97.99 108.86 94.93 109.05 93.81 114.36 96.87 114.17 97.99" style="fill:#42e8e0"/><polygon points="116.98 99.61 115.34 98.67 115.53 97.55 117.16 98.49 116.98 99.61" style="fill:#42e8e0"/><polygon points="119.78 101.23 118.15 100.29 118.34 99.17 119.97 100.11 119.78 101.23" style="fill:#42e8e0"/><polygon points="124.97 104.23 120.96 101.91 121.15 100.79 125.16 103.11 124.97 104.23" style="fill:#42e8e0"/><polygon points="126.06 104.86 122.05 102.54 122.24 101.42 126.25 103.74 126.06 104.86" style="fill:#42e8e0"/><polygon points="116.57 87.85 114.94 86.91 115.12 85.79 116.76 86.73 116.57 87.85" style="fill:#42e8e0"/><polygon points="121.76 90.85 117.74 88.53 117.93 87.41 121.95 89.73 121.76 90.85" style="fill:#42e8e0"/><polygon points="127.06 93.91 123.05 91.59 123.23 90.47 127.25 92.79 127.06 93.91" style="fill:#42e8e0"/><polygon points="147.5 111.47 145.07 110.07 145.26 108.95 147.69 110.35 147.5 111.47" style="fill:#42e8e0"/><polygon points="153.18 114.75 148.6 112.1 148.78 110.98 153.37 113.63 153.18 114.75" style="fill:#42e8e0"/><polygon points="138.55 106.31 134.53 103.99 134.72 102.87 138.74 105.18 138.55 106.31" style="fill:#42e8e0"/><polygon points="143.85 109.37 139.84 107.05 140.03 105.93 144.04 108.25 143.85 109.37" style="fill:#42e8e0"/><polygon points="113.73 76.74 112.1 75.8 112.28 74.68 113.92 75.62 113.73 76.74" style="fill:#42e8e0"/><polygon points="118.92 79.74 114.91 77.42 115.09 76.3 119.11 78.62 118.92 79.74" style="fill:#42e8e0"/><polygon points="124.22 82.8 120.21 80.48 120.4 79.36 124.41 81.68 124.22 82.8" style="fill:#42e8e0"/><path d="M204.34,123.64a2.22,2.22,0,0,1-1.12-.33l-32.46-18.73a4.46,4.46,0,0,1-1.91-4.32l2.08-12.38a2.29,2.29,0,0,1,1.19-1.78,2,2,0,0,1,1.87.15L206.45,105a4.46,4.46,0,0,1,1.91,4.32l-2.08,12.38a2.29,2.29,0,0,1-1.19,1.78A1.77,1.77,0,0,1,204.34,123.64ZM172.87,86.39a1.38,1.38,0,0,0-.56.12,1.84,1.84,0,0,0-.93,1.44l-2.08,12.39a4,4,0,0,0,1.69,3.84l32.45,18.74a1.58,1.58,0,0,0,1.46.14,1.84,1.84,0,0,0,.93-1.45l2.08-12.38a4,4,0,0,0-1.69-3.84L173.77,86.65A1.68,1.68,0,0,0,172.87,86.39Z" style="fill:#42e8e0"/><path d="M200.77,144.92a2.22,2.22,0,0,1-1.12-.33l-32.46-18.74a4.44,4.44,0,0,1-1.91-4.31l2.08-12.38a2.29,2.29,0,0,1,1.19-1.78,2,2,0,0,1,1.88.15l32.45,18.74a4.46,4.46,0,0,1,1.91,4.32L202.72,143a2.33,2.33,0,0,1-1.2,1.78A1.75,1.75,0,0,1,200.77,144.92Zm-.89-.72a1.56,1.56,0,0,0,1.45.14,1.87,1.87,0,0,0,.94-1.45l2.07-12.38a4,4,0,0,0-1.69-3.84L170.2,107.93a1.55,1.55,0,0,0-1.46-.14,1.86,1.86,0,0,0-.93,1.44l-2.08,12.39a4,4,0,0,0,1.69,3.84Z" style="fill:#42e8e0"/><path d="M173.68,103.24c.57.33,1.08.21,1.27-.31l3.79-10.34c.43-1.18,2.2-.11,2.57,1.55l2.33,10.41a3,3,0,0,0,1.3,1.87l.55.32c.54.31,1,.22,1.24-.23l.78-1.63c.47-1,2.07-.06,2.5,1.5h0a3,3,0,0,0,1.26,1.73l.49.28c.59.34,1.11.2,1.29-.35l.7-2.16c.4-1.21,2.17-.2,2.57,1.48l2.34,9.63a3,3,0,0,0,1.3,1.84Z" style="opacity:0.5;isolation:isolate;fill:url(#Gradiente_sem_nome_7)"/><path d="M195.86,140a3.2,3.2,0,0,1-1.42-2l-2.33-9.63c-.25-1-1.08-1.82-1.66-1.84a.47.47,0,0,0-.48.38l-.7,2.16a1,1,0,0,1-.56.63,1.24,1.24,0,0,1-1.06-.16l-.49-.28a3.24,3.24,0,0,1-1.37-1.87,2.35,2.35,0,0,0-1.6-1.75.43.43,0,0,0-.47.29l-.78,1.63a.88.88,0,0,1-.55.5,1.22,1.22,0,0,1-1-.17l-.56-.32a3.26,3.26,0,0,1-1.4-2l-2.33-10.41a2.39,2.39,0,0,0-1.65-1.88.46.46,0,0,0-.48.35L171.17,124a.94.94,0,0,1-.56.59,1.22,1.22,0,0,1-1-.16l.23-.39a.81.81,0,0,0,.66.12.46.46,0,0,0,.28-.31l3.79-10.34a.9.9,0,0,1,.94-.65,2.79,2.79,0,0,1,2.07,2.23l2.33,10.41a2.74,2.74,0,0,0,1.18,1.71l.56.33a.86.86,0,0,0,.64.13.45.45,0,0,0,.28-.26l.77-1.64a.88.88,0,0,1,.93-.54,2.74,2.74,0,0,1,2,2.08,2.8,2.8,0,0,0,1.16,1.6l.49.28a.8.8,0,0,0,.67.12.48.48,0,0,0,.28-.34l.71-2.16a.9.9,0,0,1,.88-.69h0a2.74,2.74,0,0,1,2.08,2.18l2.33,9.64a2.81,2.81,0,0,0,1.2,1.68Z" style="fill:#42e8e0"/><path d="M182.83,75.84a2.84,2.84,0,0,1-1.42-.4L156,60.79a4.52,4.52,0,0,1-1.95-4.86,2.69,2.69,0,0,1,1.54-1.87,2.57,2.57,0,0,1,2.32.23l25.37,14.65a4.51,4.51,0,0,1,2,4.86,2.75,2.75,0,0,1-1.55,1.87A2.52,2.52,0,0,1,182.83,75.84Zm-26.3-21.5a2,2,0,0,0-.73.14A2.29,2.29,0,0,0,154.52,56a4,4,0,0,0,1.75,4.34L181.64,75a2.11,2.11,0,0,0,1.92.2,2.26,2.26,0,0,0,1.28-1.56,4,4,0,0,0-1.74-4.35L157.72,54.68A2.28,2.28,0,0,0,156.53,54.34Z" style="fill:#42e8e0"/></g></g></svg>